<svg width="800" height="400" viewBox="0 0 800 400" xmlns="http://www.w3.org/2000/svg"><title>pattern-bg</title><g fill="#8661A8" fill-rule="evenodd" opacity=".2"><path d="M341.3 85.3c1.9-8.4-.8-16.7-6.4-22.4.2-.1.4-.3.4-.6l.8-3.7c.1-.3 0-.7-.3-.9-2.7-2.7-6-4.7-9.7-5.9l.3-1.2c.6-2.4 1.8-4.8 2.8-5.2.5-.2.7-.8.5-1.2l-1.6-3.7c-.2-.4-.7-.7-1.2-.5-2 .6-4.7 3.6-5.7 8l-.6 2.8c-3.4-.3-6.8.2-10 1.3-.3.1-.5.4-.6.7l-.8 3.7c-.1.3 0 .5.1.7-7.5 2.7-13.6 9.1-15.5 17.5-3 13.1 5.2 26.1 18.3 29.1 13.2 2.8 26.3-5.4 29.2-18.5zm-14.4-43.2l.9 2.1c-.3.3-.6.6-.9 1-.9-.4-1.1-1.3-1.2-2 .4-.5.8-.9 1.2-1.1zm-1.8 1.9c.2.7.6 1.4 1.4 1.8-.6 1-1.1 2.1-1.4 3.2-.9-.3-1.3-1.2-1.5-1.8.4-1.4.9-2.4 1.5-3.2zm-1.9 4.3s0-.1 0 0c.4.5.9 1.1 1.7 1.4-.1.2-.1.4-.1.5l-.2 1.1c-.1 0-.2-.1-.3-.1-.5-.1-1-.2-1.6-.3l.5-2.6zm-11.3 5.3c3.8-1.3 7.9-1.4 11.9-.5 4 .9 7.6 2.8 10.5 5.6l-.7 2.9c-2.9-2.6-6.5-4.4-10.6-5.4-4-.9-8.1-.8-11.8.3l.7-2.9zm.8 48.2C300.6 99 293 87 295.8 75c2.7-12 14.8-19.6 26.8-16.9 12 2.7 19.6 14.8 16.9 26.8-2.8 12.1-14.8 19.6-26.8 16.9z"/><path d="M313.9 96.2c-2.5-.6-4.7-1.6-6.7-3.2-3.7-3-6-7.4-6.3-12.2 0-.5-.5-.9-1-.9s-.9.5-.9 1c.3 5.3 2.8 10.3 7 13.6 2.2 1.7 4.7 2.9 7.4 3.6.5.1 1-.2 1.1-.7.3-.6-.1-1.1-.6-1.2zm15.9-30.3c-.4-.3-1-.3-1.3.1-.3.4-.3 1 .1 1.3 2.4 2.1 4.2 4.9 5.1 8 .1.3.4.6.7.7h.5c.5-.1.8-.7.6-1.2-1-3.5-3-6.6-5.7-8.9zm406.6 151.2c-.3.1-.5.3-.6.6l-.8 3.5c-.1.2 0 .5.1.7-7.1 2.6-12.8 8.6-14.6 16.5-2.8 12.3 4.9 24.6 17.3 27.4 12.3 2.8 24.6-4.9 27.4-17.3 1.8-7.9-.7-15.8-6-21.2.2-.1.4-.3.4-.6l.8-3.5c.1-.3 0-.6-.2-.8-2.6-2.6-5.7-4.5-9.1-5.6l.2-1.1c.5-2.3 1.7-4.5 2.6-4.9.4-.2.6-.7.4-1.2l-1.5-3.5c-.2-.4-.7-.6-1.1-.5-1.9.6-4.4 3.4-5.4 7.5l-.6 2.6c-3.1 0-6.3.4-9.3 1.4zm27.1 31.1c-2.6 11.4-13.9 18.5-25.3 15.9-11.4-2.6-18.5-13.9-15.9-25.3 2.6-11.4 13.9-18.5 25.3-15.9 11.4 2.6 18.5 14 15.9 25.3zm-5.5-21.9c-2.8-2.4-6.1-4.2-10-5.1-3.8-.9-7.6-.7-11.2.3l.6-2.8c3.6-1.2 7.5-1.4 11.2-.5 3.7.9 7.1 2.7 9.9 5.3l-.5 2.8zm-6.4-18.4l.9 2c-.3.3-.6.6-.8.9-.8-.4-1.1-1.2-1.1-1.9.3-.5.7-.8 1-1zm-1.6 1.7c.2.7.6 1.3 1.3 1.7-.6.9-1 2-1.3 3-.8-.3-1.2-1.1-1.5-1.7.4-1.2.9-2.2 1.5-3zm-1.8 4.1c.4.5.9 1 1.6 1.3 0 .2-.1.4-.1.5l-.2 1c-.1 0-.2-.1-.3-.1l-1.5-.3.5-2.4z"/><path d="M739.4 258.9c-2.3-.5-4.5-1.5-6.3-3-3.5-2.8-5.7-7-5.9-11.5 0-.5-.5-.9-.9-.8-.5 0-.9.4-.8.9.3 5 2.7 9.7 6.6 12.8 2.1 1.6 4.4 2.8 7 3.4.5.1 1-.2 1.1-.7 0-.5-.3-1-.8-1.1zm15-28.6c-.4-.3-.9-.3-1.3.1-.3.4-.3.9.1 1.3 2.3 2 4 4.6 4.8 7.5.1.3.4.6.7.6h.5c.5-.1.7-.6.6-1.1-1-3.3-2.8-6.2-5.4-8.4zM92 126.9c0-1.5-1.2-2.7-2.7-2.7-1.5 0-2.7 1.2-2.7 2.7 0 1.5 1.2 2.7 2.7 2.7 1.5 0 2.7-1.2 2.7-2.7zm-4.7 0c0-1.1.9-2 2-2s2 .9 2 2-.9 2-2 2-2-.9-2-2z"/><path d="M93.1 143.6L91.9 132c1.8-.9 3-2.8 3-5 0-3.1-2.5-5.6-5.6-5.6-3.1 0-5.6 2.5-5.6 5.6 0 2.1 1.2 4 3 5l-1.2 11.7-4 6.2c-.1.2-.2.4-.1.7l7.1 30c.1.4.4.7.8.7s.7-.3.8-.7l7.1-30c.1-.2 0-.5-.1-.7l-4-6.3zm-1.8-.6h-4.1l.2-2.1c.9-.8 2.4-1.7 3.5-1.6l.4 3.7zm-3.4-6.6c.7-.6 1.7-1.5 2.6-1.4l.4 3.7c-1.2-.1-2.4.7-3.3 1.3l.3-3.6zm-2.5-9.5c0-2.2 1.8-3.9 3.9-3.9 2.1 0 3.9 1.8 3.9 3.9 0 2.2-1.8 3.9-3.9 3.9-2.1 0-3.9-1.7-3.9-3.9zm3.9 5.6c.3 0 .6 0 .9-.1l.2 1.8c-.8 0-1.7.6-2.4 1.1l.3-2.9c.3.1.7.1 1 .1zm0 44l-6.2-26.1 3.7-5.7h5.1l3.7 5.7-6.3 26.1z"/><path d="M89.3 156.2c-.4 0-.7.3-.7.7v11.7c0 .4.3.7.7.7.4 0 .7-.3.7-.7v-11.7c0-.4-.3-.7-.7-.7zm0-10.2c-.4 0-.7.3-.7.7v6.3c0 .4.3.7.7.7.4 0 .7-.3.7-.7v-6.3c0-.4-.3-.7-.7-.7zm307.2 14.2c0-1.5-1.2-2.7-2.7-2.7-1.5 0-2.7 1.2-2.7 2.7 0 1.5 1.2 2.7 2.7 2.7 1.5 0 2.7-1.2 2.7-2.7zm-4.6 0c0-1.1.9-2 2-2s2 .9 2 2-.9 2-2 2-2-.9-2-2z"/><path d="M401.7 183l-4-6.2-1.2-11.7c1.8-.9 3-2.8 3-5 0-3.1-2.5-5.6-5.6-5.6-3.1 0-5.6 2.5-5.6 5.6 0 2.1 1.2 4 3 5l-1.2 11.7-4 6.2c-.1.2-.2.4-.1.7l7.1 30c.1.4.4.7.8.7s.7-.3.8-.7l7.1-30c0-.2 0-.5-.1-.7zm-5.8-6.7h-4.1l.2-2.1c.9-.8 2.4-1.7 3.5-1.6l.4 3.7zm-3.4-6.6c.7-.6 1.7-1.5 2.6-1.4l.4 3.7c-1.2-.1-2.4.7-3.3 1.3l.3-3.6zm-2.6-9.5c0-2.2 1.8-3.9 3.9-3.9 2.2 0 3.9 1.8 3.9 3.9 0 2.1-1.8 3.9-3.9 3.9-2.1 0-3.9-1.7-3.9-3.9zm4 5.6c.3 0 .6 0 .9-.1l.2 1.8c-.8 0-1.7.6-2.4 1.1l.3-2.9c.3.1.6.1 1 .1zm-.1 43.9l-6.2-26.1 3.7-5.7h5.1l3.7 5.7-6.3 26.1z"/><path d="M393.8 189.5c-.4 0-.7.3-.7.7v11.7c0 .4.3.7.7.7.4 0 .7-.3.7-.7v-11.7c0-.4-.3-.7-.7-.7zm0-10.3c-.4 0-.7.3-.7.7v6.3c0 .4.3.7.7.7.4 0 .7-.3.7-.7v-6.3c0-.3-.3-.7-.7-.7zM164.2 344.5c0 1.3 1.1 2.4 2.4 2.4 1.3 0 2.4-1.1 2.4-2.4 0-1.3-1.1-2.4-2.4-2.4-1.3 0-2.4 1-2.4 2.4zm4.2 0c0 1-.8 1.8-1.8 1.8s-1.8-.8-1.8-1.8.8-1.8 1.8-1.8 1.8.8 1.8 1.8z"/><path d="M167.4 295.6c-.1-.4-.4-.6-.8-.6s-.7.2-.8.6l-6.5 27.4c0 .2 0 .4.1.6l3.7 5.7 1.1 10.7c-1.6.9-2.8 2.6-2.8 4.5 0 2.8 2.3 5.1 5.1 5.1s5.1-2.3 5.1-5.1c0-2-1.1-3.6-2.7-4.5l1.1-10.7 3.7-5.7c.1-.2.2-.4.1-.6l-6.4-27.4zm-2.7 34.2h3.7l-.2 1.9c-.8.7-2.2 1.6-3.2 1.4l-.3-3.3zm3.2 6c-.6.6-1.6 1.3-2.4 1.3l-.3-3.3c1.1.1 2.2-.6 3-1.2l-.3 3.2zm2.3 8.7c0 2-1.6 3.6-3.6 3.6s-3.6-1.6-3.6-3.6 1.6-3.6 3.6-3.6 3.6 1.6 3.6 3.6zm-3.6-5.2c-.3 0-.6 0-.9.1l-.2-1.6c.8 0 1.6-.5 2.2-1l-.3 2.7c-.2-.1-.5-.2-.8-.2zm2.3-11.1h-4.6L161 323l5.7-23.9 5.7 23.9-3.5 5.2z"/><path d="M166 306.3V317c0 .3.3.6.6.6s.6-.3.6-.6v-10.7c0-.3-.3-.6-.6-.6s-.6.3-.6.6zm.6 13.8c-.3 0-.6.3-.6.6v5.7c0 .3.3.6.6.6s.6-.3.6-.6v-5.7c0-.3-.2-.6-.6-.6zm38.1-281.2l10 6.7c.2.2.5.2.8.1.5-.1.9-.1 1.3 0 1.3.4 2 1.8 1.6 3-.1.4-.4.8-.7 1.1-.2.2-.4.5-.3.8l.2 12c0 .4.3.8.7 1h.3c.3 0 .7-.2.9-.5l6.7-9.9c.2-.2.2-.5.1-.8-.1-.4-.1-.9 0-1.3.2-.6.6-1.1 1.2-1.4.6-.3 1.2-.4 1.8-.2.4.1.7.3 1.1.7.2.2.5.3.8.3l12.1-.2c.4 0 .8-.3 1-.7.1-.4 0-.9-.4-1.1L234 42c-.3-.2-.6-.2-.9-.1-.5.2-1 .2-1.5 0-1.3-.4-2-1.8-1.6-3 .1-.4.4-.8.7-1.1.2-.2.4-.5.4-.8l-.2-12.3c0-.4-.3-.8-.7-1-.4-.1-.9 0-1.1.4l-6.7 10c-.2.3-.2.6-.1.9.1.5.2 1 0 1.4-.2.6-.6 1.1-1.2 1.4-.6.3-1.2.4-1.8.2-.5-.1-.9-.4-1.2-.9-.2-.3-.5-.4-.8-.4l-12 .3c-.4 0-.8.3-1 .7-.1.4 0 .9.4 1.2zm12 0c.5.5 1.2.9 1.9 1.2 1.1.4 2.3.2 3.4-.3 1.1-.6 1.8-1.5 2.2-2.6.2-.7.3-1.4.1-2.2l4.6-6.9.1 8.5c-.5.5-.8 1.1-1 1.7-.4 1.1-.2 2.3.3 3.4.6 1.1 1.5 1.8 2.6 2.2l8.9 4.5-8.4.1c-.5-.4-1-.7-1.6-.9-1.1-.4-2.3-.2-3.4.3-1.1.6-1.8 1.5-2.2 2.6-.2.6-.2 1.3-.1 1.9l-4.6 6.9-.1-8.3c.4-.5.8-1.1 1-1.7.4-1.1.2-2.3-.3-3.4-.6-1.1-1.5-1.8-2.6-2.2-.6-.2-1.3-.2-2-.1l-6.9-4.6 8.1-.1z"/><path d="M223.1 47.1c.3.1.7.2 1.1.2.6 0 1.2-.1 1.7-.4.8-.4 1.5-1.2 1.8-2.1.6-1.9-.5-3.9-2.4-4.5-1.9-.6-3.9.5-4.5 2.4-.3.9-.2 1.9.3 2.7.4.8 1.1 1.4 2 1.7zm-1.4-4.2c.3-1.1 1.4-1.8 2.5-1.8.2 0 .5 0 .8.1 1.4.4 2.1 1.9 1.7 3.2-.2.7-.6 1.2-1.3 1.5-.6.3-1.3.4-2 .2s-1.2-.6-1.5-1.3c-.3-.5-.4-1.2-.2-1.9zm403.8 120.6l10.8.2c.3 0 .5-.1.7-.3.3-.3.6-.5 1-.6 1.2-.3 2.4.3 2.7 1.5.1.4.1.8 0 1.2-.1.3 0 .5.1.8l6 9c.2.3.6.5 1 .4.1 0 .2-.1.2-.1.3-.2.4-.4.4-.8l.2-10.8c0-.3-.1-.5-.3-.7-.3-.3-.5-.6-.6-1-.2-.6-.1-1.2.2-1.7.3-.5.8-.9 1.3-1 .4-.1.7-.1 1.1 0 .3.1.5 0 .7-.1l9.1-6.1c.3-.2.5-.6.4-1-.1-.4-.5-.7-.9-.7l-10.6-.2c-.3 0-.6.1-.7.4-.3.4-.7.6-1.1.8-1.2.3-2.4-.3-2.7-1.5-.1-.4-.1-.8 0-1.2.1-.3 0-.5-.1-.8l-6.2-9.2c-.2-.3-.6-.5-1-.4-.4.1-.7.5-.7.9l-.2 10.9c0 .3.1.5.3.7.3.3.6.7.7 1.1.2.6.1 1.2-.2 1.7-.3.5-.8.9-1.3 1-.4.1-.9.1-1.3-.1-.3-.1-.6-.1-.8.1l-8.9 6c-.3.2-.5.6-.4 1 .4.4.7.6 1.1.6zm9.1-5.8c.7.2 1.3.1 2 0 1-.3 1.9-1 2.4-1.9.5-.9.7-2 .4-3.1-.2-.6-.5-1.2-1-1.7l.1-7.5 4.3 6.4c-.1.6-.1 1.2.1 1.8.3 1 1 1.9 1.9 2.4.9.5 2 .7 3.1.4l8.9-.9-6.3 4.2c-.6-.1-1.1 0-1.7.1-1 .3-1.9 1-2.4 1.9-.5.9-.7 2-.4 3.1.2.6.5 1.1.8 1.5l-.1 7.4-4.2-6.2c.1-.6.1-1.2-.1-1.8-.3-1-1-1.9-1.9-2.4-.9-.5-2-.7-3.1-.4-.6.2-1.1.5-1.6.9l-7.5-.1 6.3-4.1z"/><path d="M641.1 160.4c.8.4 1.6.5 2.5.3.3-.1.6-.2.9-.4.4-.3.8-.7 1.1-1.1.4-.8.5-1.6.3-2.5-.5-1.7-2.3-2.7-4-2.2-1.7.5-2.7 2.3-2.2 4 .1.8.6 1.5 1.4 1.9zm.3-4.7l.6-.3c1.2-.4 2.5.4 2.9 1.6.2.6.1 1.2-.2 1.8-.3.5-.8.9-1.4 1.1-.6.2-1.2.1-1.8-.2-.5-.3-.9-.8-1.1-1.4-.2-1.1.2-2.1 1-2.6zm-31 186.8l-9-5.6c-.2-.2-.6-.2-.8-.1-.4.2-.9.2-1.4.1-1.2-.3-1.9-1.5-1.5-2.7.1-.4.3-.7.6-1 .2-.2.3-.4.3-.7l-.5-11.1c0-.4-.3-.7-.7-.8-.4-.1-.8.1-1 .4l-5.7 9.2c-.1.2-.2.5-.1.8.2.4.2.9.1 1.3-.2.6-.5 1-1 1.3-.5.3-1.1.4-1.7.2-.4-.1-.8-.4-1.1-.7-.2-.2-.5-.4-.8-.3l-10.7.5c-.4 0-.7.3-.8.7-.1.4.1.8.4 1l9.2 5.7c.2.1.5.2.8.1.4-.1.8-.1 1.2 0 1.2.3 1.9 1.5 1.5 2.7-.1.4-.3.7-.6 1-.2.2-.3.4-.3.7l.5 10.8c0 .4.3.7.7.8h.3c.3 0 .6-.2.8-.4l5.7-9.2c.1-.2.2-.5.1-.7-.1-.4-.1-.8 0-1.2.2-.6.5-1 1-1.3.5-.3 1.1-.4 1.7-.2.4.1.7.3 1 .6.2.2.5.3.7.3l10.9-.5c.4 0 .7-.3.8-.7-.1-.4-.2-.8-.6-1zm-11.1.4c-.4-.4-.9-.6-1.5-.8-1-.3-2.1-.1-3.1.4-.9.5-1.6 1.4-1.9 2.4-.2.6-.2 1.2-.1 1.8l-3.9 6.3-.4-7.5c.4-.5.7-1 .8-1.6.3-1 .1-2.1-.4-3.1-.5-.9-1.4-1.6-2.4-1.9-.6-.2-1.2-.2-1.8-.1l-6.4-3.9 7.3-.4c.5.5 1.1.8 1.7 1 1 .3 2.1.1 3.1-.4.9-.5 1.6-1.4 1.9-2.4.2-.6.2-1.3 0-2l3.9-6.4.4 7.7c-.4.5-.7 1-.8 1.6-.3 1-.1 2.1.4 3.1.5.9 1.4 1.6 2.4 1.9l8.2 3.8-7.4.5z"/><path d="M593.5 335.7c-1.7-.5-3.5.6-4 2.3-.2.8-.1 1.7.3 2.5s1.1 1.3 2 1.5c.3.1.6.1 1 .1.5 0 1-.2 1.5-.4.8-.4 1.3-1.1 1.5-2 .4-1.8-.6-3.6-2.3-4zm1.4 3.7c-.2.6-.5 1.1-1.1 1.4-.5.3-1.2.4-1.8.2-.6-.2-1.1-.5-1.4-1.1-.3-.5-.4-1.2-.2-1.8.3-1 1.2-1.7 2.2-1.7.2 0 .5 0 .7.1 1.2.4 1.9 1.7 1.6 2.9zm-549-168c.4.1.7.3 1 .6.2.2.4.3.7.3l10.8-.4c.4 0 .8-.3.9-.7v-.3c0-.3-.2-.6-.4-.8l-9.1-5.8c-.2-.1-.5-.2-.7-.1-.4.1-.8.1-1.2 0-.6-.2-1-.5-1.3-1-.3-.5-.4-1.1-.2-1.7.1-.4.3-.7.6-1 .2-.2.3-.5.3-.7l-.5-10.8c0-.4-.3-.8-.7-.9-.4-.1-.8.1-1 .4l-5.7 8.9c-.2.2-.2.6-.1.8.2.4.2.9.1 1.4-.3 1.2-1.5 1.8-2.7 1.5-.4-.1-.7-.3-1-.6-.2-.2-.4-.3-.7-.3l-11.1.4c-.4 0-.8.3-.9.7-.1.4.1.8.4 1l9.2 5.8c.2.2.5.2.8.1.4-.1.9-.2 1.3 0 .6.2 1 .5 1.3 1 .3.5.4 1.1.2 1.7-.1.4-.4.8-.7 1.1-.2.2-.4.5-.3.8l.4 10.7c0 .4.3.8.7.9.4.1.8-.1 1-.4l5.8-9.1c.1-.2.2-.5.1-.8-.1-.4-.1-.8 0-1.2.3-1.2 1.5-1.8 2.7-1.5zm-2.6-1.4c-.9.5-1.6 1.4-1.9 2.4-.2.6-.2 1.2-.1 1.8l-4 6.3-.3-7.3c.5-.5.8-1.1 1-1.7.3-1 .2-2.1-.4-3.1-.5-.9-1.4-1.6-2.4-1.9-.6-.2-1.3-.2-2-.1l-6.3-4 7.7-.3c.5.4 1 .7 1.6.8 1 .3 2.1.2 3.1-.4.9-.5 1.6-1.4 1.9-2.4l3.9-8.1.3 7.6c-.4.4-.6.9-.8 1.5-.3 1-.2 2.1.4 3.1.5.9 1.4 1.6 2.4 1.9.6.2 1.2.2 1.8.1l6.3 4-7.5.3c-.5-.4-1-.7-1.5-.8-1.2-.4-2.3-.3-3.2.3z"/><path d="M42 163.2c-1.7-.5-3.5.5-4 2.2-.5 1.7.5 3.5 2.2 4 .8.2 1.7.1 2.5-.3s1.3-1.1 1.5-2c.1-.3.1-.6.1-1 0-.5-.2-1-.4-1.5-.3-.7-1-1.2-1.9-1.4zm1.4 3.7c-.2.6-.6 1.1-1.1 1.4-.5.3-1.2.4-1.8.2-1-.3-1.7-1.2-1.7-2.2 0-.2 0-.5.1-.7.3-1.2 1.6-2 2.9-1.6.6.2 1.1.6 1.4 1.1.3.6.4 1.2.2 1.8zm183 185.1H218v-83.4c0-.4-.4-.8-.8-.8h-5.5c-.4 0-.8.4-.8.8V352h-8.4c-.4 0-.8.4-.8.8v5.5c0 .4.4.8.8.8h8.4v27.1c0 .4.4.8.8.8h5.5c.4 0 .8-.4.8-.8v-27.1h8.4c.4 0 .8-.4.8-.8v-5.5c0-.4-.4-.8-.8-.8zm-13.9-82.6h3.9V352h-3.9v-82.6zm3.9 116h-3.9v-26.3h3.9v26.3zm9.2-27.9h-8c-.1-.1-.3-.1-.4-.1-.1 0-.3.1-.4.1h-4.7c-.1-.1-.3-.1-.4-.1-.1 0-.3.1-.4.1h-8v-3.9h22.3v3.9zm479.5-194.4c-.4 0-.8.4-.8.8v5.5c0 .4.4.8.8.8h8.4v27.1c0 .4.4.8.8.8h5.5c.4 0 .8-.4.8-.8v-27.1h8.4c.4 0 .8-.4.8-.8v-5.5c0-.4-.4-.8-.8-.8h-8.4V79.7c0-.4-.4-.8-.8-.8h-5.5c-.4 0-.8.4-.8.8v83.4h-8.4zm13.8 33.4H715v-26.3h3.9v26.3zm9.2-27.9h-8c-.1-.1-.3-.1-.4-.1-.1 0-.3.1-.4.1h-4.7c-.1-.1-.3-.1-.4-.1-.2 0-.3.1-.4.1h-8v-3.9h22.3v3.9zM715 80.5h3.9v82.6H715V80.5zM348.4 278.6c.4-.1.7-.4.7-.8v-8c0-.2-.1-.5-.3-.6-.2-.2-.4-.2-.7-.2l-2.5.4v-.2c0-9.3.5-25.5 1-42.7.3-9 .5-18.4.7-27.2.2-7.6 1.2-15.4 1.2-15.5v-.3c-2.9-13.8-14.1-23.9-14.6-24.3 0 0-.1 0-.1-.1l-.1-.1h-.6s-.1 0-.1.1c0 0-.1 0-.1.1-.5.4-11.7 10.4-14.6 24.3v.3c0 .1 1 7.9 1.2 15.5.2 8.8.5 18.1.7 27.2.5 17.2 1 33.4 1 42.7v.2l-2.5-.4c-.2 0-.5 0-.7.2-.2.2-.3.4-.3.6v8c0 .4.3.7.7.8l5.2.9 2.6 8.1c.1.3.4.6.8.6h1.6l.7 13.7.3 6.6.2 4.3h-.1c-.4 0-.8.4-.8.8v4.1c-.8 1-1.2 2.3-1.2 3.5 0 3.2 2.6 5.8 5.8 5.8 3.2 0 5.8-2.6 5.8-5.8 0-1.3-.4-2.5-1.2-3.5v-4.1c0-.4-.4-.8-.8-.8h-.1l.4-8.2.8-16.4h1.6c.4 0 .7-.2.8-.6l2.6-8.1 5-.9zm-26.5-52.2c-.3-9-.5-18.3-.7-27.1-.2-7.1-1.1-14.4-1.2-15.5 2.3-10.6 9.9-19.1 12.8-22.1v6.3c0 .4.3.6.7.6.4 0 .6-.3.6-.6v-6.3c3 3 10.6 11.5 12.8 22.1-.1 1.1-1 8.4-1.2 15.5-.2 8.8-.5 18.1-.7 27.2-.5 17.2-1 33.4-1 42.7 0 .2.1.3.2.4l-4.7.8c0-.9-.3-1.8-.7-2.6 0-.1.1-.2.1-.3v-69.6c0-4.3-4.2-9.1-4.7-9.7v-14.5c0-.4-.3-.6-.6-.6-.4 0-.7.3-.7.6v14.5c-.5.5-4.7 5.4-4.7 9.7v69.6c0 .1 0 .2.1.3-.4.7-.6 1.6-.7 2.4l-4.8-.8c.1-.1.2-.3.2-.4-.1-9.2-.6-25.4-1.1-42.6zm11.5-36.3c1.2 1.5 3.7 5 3.7 7.9v68c-1-.8-2.3-1.3-3.7-1.3-1.4 0-2.7.5-3.8 1.3v-68c.1-2.9 2.6-6.4 3.8-7.9zm-4.3 80.7c0-2.4 2-4.4 4.4-4.4 2.4 0 4.4 2 4.4 4.4 0 2.4-2 4.4-4.4 4.4-2.4-.1-4.4-2-4.4-4.4zm-9.7-.1l8.2 1.4c.6 2.6 3 4.6 5.8 4.6s5.2-2 5.8-4.6l8.1-1.4v6.4l-6.9 1.2h-14.2l-6.9-1.2v-6.4h.1zm16.5 33.5c-1.2 2.4-3.5 3.1-4.8 3.3l-.2-5c1.2-.2 3.4-.7 5.2-2.7l-.2 4.4zm.4-7.5c-1.4 3.1-4.1 4-5.5 4.2l-.2-4.6c1.3-.2 3.9-.9 5.8-2.8l-.1 3.2zm.1 17.6v2.7h-5.9v-2.7h5.9zm-2.9 11c-2.3 0-4.2-1.9-4.2-4.2 0-.9.3-1.7.8-2.5h6.8c.5.7.8 1.6.8 2.5 0 2.4-1.9 4.2-4.2 4.2zm-2.1-12.6l-.2-3.5c1.1-.1 3-.6 4.5-2l-.3 5.6h-4v-.1zm5.2-22.1c-1.2 2.8-4.5 3.8-6.1 4.1l-.3-6.6h6.5l-.1 2.5zm4.9-10.7l-2.1 6.6h-11.8l-2.1-6.6H339c.1.1.3.2.5.2h.1l1-.2h.9z"/><path d="M331.4 227.9c.2 0 .3-.1.5-.2l3.7-3.7c.3-.3.3-.7 0-.9-.3-.2-.7-.3-.9 0l-3.7 3.7c-.3.3-.3.7 0 .9 0 .2.2.2.4.2zm0 3.8c.2 0 .3-.1.5-.2l3.7-3.7c.3-.3.3-.7 0-.9-.3-.2-.7-.3-.9 0l-3.7 3.7c-.3.3-.3.7 0 .9 0 .1.2.2.4.2zm6 50.8h-7.9c-.4 0-.6.3-.6.6 0 .4.3.7.6.7h7.9c.4 0 .7-.3.7-.7 0-.3-.3-.6-.7-.6zm-3.9 40.6c-1.1 0-1.9-.9-1.9-1.9 0-.4-.3-.7-.7-.7-.4 0-.6.3-.6.7 0 1.8 1.4 3.2 3.2 3.2.4 0 .7-.3.7-.6-.1-.4-.4-.7-.7-.7zm0-49.7c1.5 0 2.7-1.2 2.7-2.7 0-1.5-1.2-2.7-2.7-2.7-1.5 0-2.7 1.2-2.7 2.7 0 1.5 1.2 2.7 2.7 2.7zm0-4c.7 0 1.4.6 1.4 1.4 0 .7-.6 1.4-1.4 1.4-.7 0-1.4-.6-1.4-1.4 0-.8.6-1.4 1.4-1.4zm-47.8-142.9c0-.1 0-.1-.1-.1 0-.1-.1-.2-.2-.2l-.1-.1c-.1-.1-.1-.1-.2-.1h-.1l-25.9-8.4a.8.8 0 0 0-1.1.6c-.1.2 0 .4 0 .6l-.5.9-2.4-.9.8-1.3c.2-.3.1-.8-.2-1-.1-.1-.2-.1-.3-.1-.1-.1-.2-.1-.3-.1l-18.3-5.9c-.4-.1-.8 0-1 .4l-11.7 17.8c-.1.1-.2.2-.2.3-.1.2-.1.4 0 .6.1.2.2.4.4.5.2.1.3.2.5.2l-1.2 2.1-.3-.1c-.1-.1-.1-.2-.2-.2-.4-.3-1-.2-1.3.3l-15.8 24v.1c0 .1-.1.1-.1.2v.5c0 .1.1.2.2.3l19.8 22.5c.1.1.2.2.3.2l20.2 9.7c.1.1.3.1.4.1.3 0 .6-.2.8-.5.1 0 .1 0 .2-.1.2-.1.2-.2.3-.4l1.8 1c.1.1.2.1.3.1l1.4 1.9c.1.2.3.3.5.3.1.2.2.3.4.4l16.9 8.1c.1.1.2.1.4.1.1 0 .2 0 .3-.1h.1c.1 0 .2-.1.3-.2v-.1l.1-.1 8.1-14.7c.2-.3.1-.8-.1-1 .1-.2.1-.4 0-.6l-.6-1.2 1.1-2 .4.8c.2.4.6.5 1 .3.1 0 .2-.1.2-.2.2-.1.3-.2.4-.4l14.3-26c.1-.2.1-.5.1-.7l-9.8-28.1zM237 112.3l17.1 5.5-10.6 17.6-17.5-6.5 11-16.6zm-10.8 18.1l17.3 6.5h.3c.2 0 .5-.1.6-.4l10-16.6 2.4.9-11.5 19-20.3-7.3 1.2-2.1zm-3.2 3l22.3 8.1h.2c.2 0 .5-.1.6-.4l13.2-21.7 24.1 7.8-28.9 49.5-46.5-20.6 15-22.7zM210.1 159l44.2 19.6 5.7 8.6-18.1-8.4c-.3-.1-.6-.1-.9.2-.2.2-.2.6-.1.9l4.6 7.4-18.7-9-16.7-19.3zm36.7 27.3l-3.2-5.1 18 8.3.9 1.4-14.7-6.5c-.3-.1-.7-.1-.9.2-.2.3-.2.6 0 .9l1.1 1.6-1.2-.8zm6.3 4.6c-.2-.1-.4-.1-.6-.1l-2.8-3.9 13.8 6.1c.1 0 .2.1.3.1h.1l3 4.5-13.8-6.7zm16.4 7.1l-4.4-6.5 8.4-13.5 3.5 6.5-.1.1-7.4 13.4zm7.3-16.8l-2.6-4.9c-.1-.2-.4-.4-.6-.4-.2 0-.5.1-.6.3l-8.7 14-.9-1.3 10.7-17.1 3.8 7.3-1.1 2.1zm2.9-1.8l-4.9-9.4c-.1-.2-.4-.4-.6-.4-.3 0-.5.1-.6.3l-11 17.6-6.5-9.7 28.6-48.9 8.7 25.7-13.7 24.8zm398.7 132.8c.1.1.2.1.4.1.1 0 .2 0 .3-.1h.1c.1-.1.2-.1.3-.2v-.1l.1-.1 8.1-14.7c.2-.3.1-.8-.1-1 .1-.2.1-.4 0-.6l-.6-1.2 1.1-2 .4.8c.2.4.6.5 1 .3.1 0 .2-.1.2-.2.2-.1.3-.2.4-.4l14.3-26c.1-.2.1-.5.1-.7l-9.5-28s0-.1-.1-.1c0-.1-.1-.2-.2-.2l-.1-.1c-.1-.1-.1-.1-.2-.1h-.1l-25.9-8.4a.8.8 0 0 0-1.1.6c-.1.2 0 .4 0 .6l-.5.9-2.4-.9.8-1.3c.2-.3.1-.8-.2-1-.1-.1-.2-.1-.3-.1-.1-.1-.2-.1-.3-.1l-18.3-5.9c-.4-.1-.8 0-1 .4l-11.7 17.8c-.1.1-.2.2-.2.3-.1.2-.1.4 0 .6.1.2.2.4.4.5.2.1.3.2.5.2l-1.2 2.1-.3-.1c-.1-.1-.1-.2-.2-.2-.4-.3-1-.2-1.3.3l-15.8 24v.1c0 .1-.1.1-.1.2v.5c0 .1.1.2.2.3l19.8 22.5c.1.1.2.2.3.2l20.2 9.7c.1.1.3.1.4.1.3 0 .6-.2.8-.5.1 0 .1 0 .2-.1.2-.1.2-.2.3-.4l1.8 1c.1.1.2.1.3.1l1.4 1.9c.1.2.3.3.5.3.1.2.2.3.4.4l16.6 8zm.3-2.5l-4.4-6.5 8.4-13.5 3.5 6.5-.1.1-7.4 13.4zm7.3-16.9l-2.6-4.9c-.1-.2-.4-.4-.6-.4-.2 0-.5.1-.6.3l-8.7 14-.9-1.3 10.7-17.1 3.8 7.3-1.1 2.1zm2.9-1.8l-4.9-9.4c-.1-.2-.4-.4-.6-.4-.3 0-.5.1-.6.3l-11 17.6-6.5-9.7 28.6-48.9 8.7 25.7-13.7 24.8zm-42.7-67.1l17.1 5.5-10.6 17.6-17.5-6.5 11-16.6zm-10.8 18.2l17.3 6.5h.3c.2 0 .5-.1.6-.4l10-16.6 2.4.9-11.5 19-20.3-7.3 1.2-2.1zm-3.2 3l22.3 8.1h.2c.2 0 .5-.1.6-.4l13.2-21.7 24.1 7.8-28.9 49.5-46.5-20.7 15-22.6zm-12.9 25.6l44.2 19.6 5.7 8.6-18.1-8.4c-.3-.1-.6-.1-.9.2-.2.2-.2.6-.1.9l4.6 7.4-18.7-9-16.7-19.3zM656 298l-3.2-5.1 18 8.3.9 1.4-14.7-6.5c-.3-.1-.7-.1-.9.2-.2.3-.2.6 0 .9l1.1 1.6-1.2-.8zm6.3 4.5c-.2-.1-.4-.1-.6-.1l-2.8-3.9 13.8 6.1c.1 0 .2.1.3.1h.1l3 4.5-13.8-6.7zm-435.7-86.4h-11.9v-3.9c0-.6-.5-1-1-1h-.5v-9.3c0-.5-.4-.8-.8-.8h-4.8c-.5 0-.8.4-.8.8v9.3H150v-4.5c0-.5-.4-.8-.8-.8h-12.5c-.5 0-.8.4-.8.8v4.5h-3.8c-.6 0-1 .5-1 1v3.9H125c.1-.5.1-1.1.1-1.7 0-.2-.1-.5-.2-.6-.2-.2-.4-.3-.6-.3h-9c-.4 0-.8.4-.8.8 0 .2-.9 19.6-5 29.6-.1.3-.1.6.1.8.2.2.4.4.7.4h5.9c.3 0 .6-.2.7-.4.1-.1 4-7.3 6.5-18.4h7.7v2.2c0 .2.1.4.2.6v6.4c0 .5.4.8.8.8h5.8c-1.1 9.8-6.5 22.4-6.6 22.5-.1.3-.1.6.1.8.2.2.4.4.7.4H143c.3 0 .6-.2.8-.5.1-.3 1.8-4.4 3.4-9.2h9.6c.5 0 .8-.4.8-.8v-6.9h7.5c1.5 8.8 4.8 23.8 11.1 32.1.2.2.4.3.7.3h.2l10.9-3.3c.3-.1.5-.3.6-.5.1-.3 0-.5-.1-.8-.1-.1-10.3-14.4-10.7-34.9v-5.9h19.6v5.1H195c-.5 0-.8.4-.8.8V251c0 .5.4.8.8.8h14c.5 0 .8-.4.8-.8v-15.5c0-.5-.4-.8-.8-.8h-1.5v-5.1h6.1c.6 0 1-.5 1-1v-2.2h11.9c.5 0 .8-.4.8-.8V217c.1-.5-.3-.9-.7-.9zm-18.2-13.4h3.1v7.7h-3.1v-7.7zm-70.9 4.8h10.9v3.7h-10.9v-3.7zm-4.5 5.8h55.3v5.1h-6.4c-.5 0-.8.4-.8.8s.4.8.8.8h6.4v7.4H133v-14.1zm-17.6 30.2h-4.1c3.4-9.4 4.4-24.5 4.6-28.2h7.3c-1.3 15-6.6 25.9-7.8 28.2zm8.1-18.8c.4-2.2.8-4.4 1.1-6.9h6.3v6.9h-7.4zm18.8 33.6h-9.1c1.4-3.4 5.3-13.6 6.3-22h9.6c-.4 5.9-5.7 19.2-6.8 22zm13.6-9.6h-8.2c.6-1.8 1.2-3.6 1.7-5.3.3 1.5 1.1 3.5 3 3.9h.1c.4 0 .8-.3.8-.7.1-.5-.2-.9-.7-1-1.1-.2-1.6-1.8-1.8-3h5l.1 6.1zm-5.9-7.8c.4-1.7.7-3.3.8-4.6h13.3c.1.9.3 2.5.6 4.6H150zm36.3 29.5l-4.1 1.2c-2.3-3.3-3.6-7.4-3.6-7.5-.1-.4-.6-.7-1-.6-.4.1-.7.6-.6 1 .1.2 1.3 4.1 3.5 7.5l-3.4 1c-7.7-10.6-10.7-32.2-11.3-36.9h4.5c.1 2.9.8 13 5.2 24.7.1.3.4.5.8.5.1 0 .2 0 .3-.1.4-.2.7-.6.5-1.1-4.2-11.5-4.9-21.3-5-24.2h4c.5 18 8 31 10.2 34.5zM176 234.7h-43.2v-5.1H176v5.1zm32.2 8.8h-12.3V241h12.3v2.5zm-12.4 6.7v-5h12.3v5h-12.3zm12.4-10.9h-12.3v-3h12.3v3zm-2.3-4.6h-7v-5.1h7v5.1zm6.7-7.2h-22.7v-14.2h22.7v14.2zm13.1-2.8h-11v-6.9h11v6.9z"/><path d="M176.8 218.4h-40.2c-.5 0-.8.4-.8.8 0 .5.4.8.8.8h40.2c.5 0 .8-.4.8-.8s-.3-.8-.8-.8zm25.2 1.7h7.2c.5 0 .8-.4.8-.8s-.4-.8-.8-.8H202c-.5 0-.8.4-.8.8s.3.8.8.8zm-59.1 18.7c-1.7 0-3 1.3-3 3s1.3 3 3 3 3-1.3 3-3-1.4-3-3-3zm0 4.3c-.7 0-1.3-.6-1.3-1.3 0-.7.6-1.3 1.3-1.3.7 0 1.3.6 1.3 1.3 0 .7-.6 1.3-1.3 1.3zM292.5 233c-.9-.7-2-.8-3-.4-1.8.8-3 .8-3.4.4-.3-.3-.2-.9.2-1.7.9-1.8.4-3.2-.4-3.9-.9-.8-2.3-.8-3.3.1-.2.2-.4.3-.7.5-.6.5-1.5 1.2-1.9 1.1-.1 0-.6-.4-.9-2.3-.7-3.8-2.8-3.9-3.4-3.8-1.7.2-3.1 2.1-3.1 4.4 0 1.5.8 6.8 1.2 9.3-.7-.2-1.4-.2-2 .1-.8.3-1.5.9-1.8 1.7l-.1.3c-.3.6-.4 1.3-.2 2-14.2-1.4-18.2 4.7-20.9 10.6-2 4.5-1.8 9.6.6 14.5s6.7 8.9 12.1 11.3c3.5 1.6 7.2 2.4 10.8 2.4 2 0 3.9-.2 5.7-.7 5.3-1.4 9.3-4.6 11.4-9.1 2.7-5.8 4.8-14.5-6.4-23.1.5-.3 1-.8 1.2-1.4l.1-.3c.4-.8.4-1.7.1-2.5-.1-.4-.4-.7-.6-1 1.8-.8 5.5-2.3 7.8-3.3 1.7-.8 2.1-1.9 2.2-2.5.1-1-.4-2-1.3-2.7zm-4.3 36.3c-1.9 4.1-5.6 7-10.5 8.3-4.9 1.3-10.5.7-15.6-1.6s-9.2-6.1-11.5-10.7c-2.2-4.5-2.5-9.3-.6-13.4 2.6-5.8 6.4-11.3 20.4-9.7.3.4.7.7 1.1.9h.1l.9.3c2.3.7 4.5 1.7 6.5 2.9l.8.5h.1c.4.2.9.3 1.3.3h.1c6 4.4 12 10.8 6.9 22.2zm-5.1-24.9l-.1.3c-.2.5-.6.8-1.1 1-.5.2-1 .2-1.4 0l-.7-.5c-2.1-1.3-4.4-2.4-6.8-3.1l-.8-.2c-.4-.2-.8-.6-.9-1-.1-.3-.1-.6-.1-.9 1.9.5 5.5 1.6 6.9 3 .1.1.3.2.5.2s.4-.1.5-.2c.3-.3.3-.7 0-1-1.7-1.7-5.6-2.9-7.3-3.3.5-.6 1.4-.8 2.2-.5h.1l.4.1c.1.2.4.3.6.2h.1c2.2.7 4.4 1.6 6.3 2.9l.8.5h.1c.5.2.8.6 1 1.1-.1.5-.1 1-.3 1.4zm7.9-7.5c-2.6 1.1-7.3 3.1-8.5 3.6l-.5-.3-.6-.3.8-.9c.3-.3.3-.7 0-1-.3-.3-.7-.3-1 0l-1.1 1.1c-.7-.4-1.5-.7-2.3-1.1l.7-3.5c.1-.4-.2-.7-.5-.8-.4-.1-.7.2-.8.5l-.7 3.2c-.4-.1-.8-.3-1.2-.4-.3-1.9-1.2-8.2-1.2-9.7 0-1.7.9-2.9 1.8-3 .9-.1 1.6.9 1.9 2.7.3 1.9.9 3 1.8 3.3 1.1.4 2.2-.5 3.2-1.3.2-.2.4-.3.6-.5.6-.4 1.2-.5 1.6-.1.4.3.6 1.1.1 2.2-1 1.8-.4 2.8 0 3.3.9.9 2.7.9 4.9-.1.7-.3 1.4 0 1.6.2.5.3.7.9.7 1.4 0 .7-.5 1.2-1.3 1.5z"/><path d="M264.2 271.3c-2.3-1-4.3-2.5-5.9-4.4-.3-.3-.7-.3-1-.1-.3.3-.3.7-.1 1 1.7 1.9 3.9 3.6 6.4 4.7.1 0 .2.1.3.1.3 0 .5-.2.6-.4.2-.3.1-.7-.3-.9zm1.1-2.7c-1.5-.7-2.9-1.7-4-2.9-.3-.3-.7-.3-1-.1-.3.3-.3.7-.1 1 1.2 1.4 2.7 2.5 4.4 3.3.1 0 .2.1.3.1.3 0 .5-.2.6-.4.3-.5.2-.9-.2-1zm13.1-18.7c-.3-.2-.7-.1-1 .2-.2.3-.2.7.2 1 2.7 2 4.6 4.1 5.5 6.3 1.2 2.8 1 5.7-.6 9.3-.2.3 0 .8.3.9.1 0 .2.1.3.1.3 0 .5-.2.6-.4 1.1-2.5 2.4-6.3.6-10.4-.9-2.5-3-4.8-5.9-7zm470.3 65.9c-.9-.7-2-.8-3-.4-1.8.8-3 .8-3.4.4-.3-.3-.2-.9.2-1.7.9-1.8.4-3.2-.4-3.9-.9-.8-2.3-.8-3.3.1-.2.2-.4.3-.7.5-.6.5-1.5 1.2-1.9 1.1-.1 0-.6-.4-.9-2.3-.7-3.8-2.8-3.9-3.4-3.8-1.7.2-3.1 2.1-3.1 4.4 0 1.5.8 6.8 1.2 9.3-.7-.2-1.4-.2-2 .1-.8.3-1.5.9-1.8 1.7l-.1.3c-.3.6-.4 1.3-.2 2-14.2-1.4-18.2 4.7-20.9 10.6-2 4.5-1.8 9.6.6 14.5s6.7 8.9 12.1 11.3c3.5 1.6 7.2 2.4 10.8 2.4 2 0 3.9-.2 5.7-.7 5.3-1.4 9.3-4.6 11.4-9.1 2.7-5.8 4.8-14.5-6.4-23.1.5-.3 1-.8 1.2-1.4l.1-.3c.4-.8.4-1.7.1-2.5-.1-.4-.4-.7-.6-1 1.8-.8 5.5-2.3 7.8-3.3 1.7-.8 2.1-1.9 2.2-2.5.1-1-.4-2-1.3-2.7zm-4.3 36.2c-1.9 4.1-5.6 7-10.5 8.3-4.9 1.3-10.5.7-15.6-1.6s-9.2-6.1-11.5-10.7c-2.2-4.5-2.5-9.3-.6-13.4 2.6-5.8 6.4-11.3 20.4-9.7.3.4.7.7 1.1.9h.1l.9.3c2.3.7 4.5 1.7 6.5 2.9l.8.5h.1c.4.2.9.3 1.3.3h.1c6 4.5 12 10.9 6.9 22.2zm-5.1-24.8l-.1.3c-.2.5-.6.8-1.1 1-.5.2-1 .2-1.4 0l-.7-.5c-2.1-1.3-4.4-2.4-6.8-3.1l-.8-.2c-.4-.2-.8-.6-.9-1-.1-.3-.1-.6-.1-.9 1.9.5 5.5 1.6 6.9 3 .1.1.3.2.5.2s.4-.1.5-.2c.3-.3.3-.7 0-1-1.7-1.7-5.6-2.9-7.3-3.3.5-.6 1.4-.8 2.2-.5h.1l.4.1c.1.2.4.3.6.2h.1c2.2.7 4.4 1.6 6.3 2.9l.8.5h.1c.5.2.8.6 1 1.1-.1.5-.1 1-.3 1.4zm7.9-7.5c-2.6 1.1-7.3 3.1-8.5 3.6l-.5-.3-.6-.3.8-.9c.3-.3.3-.7 0-1-.3-.3-.7-.3-1 0l-1.1 1.1c-.7-.4-1.5-.7-2.3-1.1l.7-3.5c.1-.4-.2-.7-.5-.8-.4-.1-.7.2-.8.5l-.7 3.2c-.4-.1-.8-.3-1.2-.4-.3-1.9-1.2-8.2-1.2-9.7 0-1.7.9-2.9 1.8-3 .9-.1 1.6.9 1.9 2.7.3 1.9.9 3 1.8 3.3 1.1.4 2.2-.5 3.2-1.3.2-.2.4-.3.6-.5.6-.4 1.2-.5 1.6-.1.4.3.6 1.1.1 2.2-1 1.8-.4 2.8 0 3.3.9.9 2.7.9 4.9-.1.7-.3 1.4 0 1.6.2.5.3.7.9.7 1.4 0 .7-.5 1.1-1.3 1.5z"/><path d="M720.4 354.1c-2.3-1-4.3-2.5-5.9-4.4-.3-.3-.7-.3-1-.1-.3.3-.3.7-.1 1 1.7 1.9 3.9 3.6 6.4 4.7.1 0 .2.1.3.1.3 0 .5-.2.6-.4.2-.3.1-.7-.3-.9zm1.1-2.8c-1.5-.7-2.9-1.7-4-2.9-.3-.3-.7-.3-1-.1-.3.3-.3.7-.1 1 1.2 1.4 2.7 2.5 4.4 3.3.1 0 .2.1.3.1.3 0 .5-.2.6-.4.3-.4.2-.8-.2-1zm13.1-18.6c-.3-.2-.7-.1-1 .2-.2.3-.2.7.2 1 2.7 2 4.6 4.1 5.5 6.3 1.2 2.8 1 5.7-.6 9.3-.2.3 0 .8.3.9.1 0 .2.1.3.1.3 0 .5-.2.6-.4 1.1-2.5 2.4-6.3.6-10.4-.9-2.6-3-4.9-5.9-7zM179.5 100.2c0 .1 0 .1.1.1v.1l.1.1s0 .1.1.1l11.7 10.1.1.1s.1 0 .1.1c.1 0 .2.1.3.1.1 0 .2 0 .3-.1.1 0 .1-.1.2-.1l11.6-10.1s0-.1.1-.1l.1-.1v-.1l.1-.1V78.4c0-.1 0-.1-.1-.2v-.1l-.1-.1s0-.1-.1-.1L192.6 67c-.1-.1-.2-.1-.2-.2h-.7c-.1 0-.2.1-.2.2l-11.7 11.1s0 .1-.1.1c0 0-.1 0-.1.1v.1c0 .1 0 .1-.1.2v21.6c0-.2 0-.1 0 0zm23.2-2.1l-4.3-3.2V83.1l4.3-2.8v17.8zM192 78.3l4.7 4.7v12l-4.6 4.6h-.2l-4.6-4.6V83l4.7-4.7zm.8 23l4.8-4.8 4.6 3.4-9.4 8.1v-6.7zm4.9-19.8l-4.8-4.8v-7l9.3 8.9-4.5 2.9zm-6.6-4.8l-4.8 4.8-4.5-2.9 9.3-8.9v7zm-5.6 6.4v11.8l-4.3 3.2V80.3l4.3 2.8zm-3.8 16.8l4.6-3.4 4.8 4.8v6.7l-9.4-8.1zm256 98.1c-.1-.1-.2-.1-.2-.2h-.7c-.1 0-.2.1-.2.2l-11.7 11s0 .1-.1.1c0 0-.1 0-.1.1v.1c0 .1 0 .1-.1.2v21.8c0 .1 0 .1.1.1v.1l.1.1s0 .1.1.1l11.7 10.1.1.1s.1 0 .1.1c.1 0 .2.1.3.1.1 0 .2 0 .3-.1.1 0 .1-.1.2-.1l11.6-10.1s0-.1.1-.1l.1-.1v-.1l.1-.1v-21.8c0-.1 0-.1-.1-.2v-.1l-.1-.1s0-.1-.1-.1L437.7 198zm-11.3 13.3l4.3 2.8v11.8l-4.3 3.2v-17.8zm5 1.2l-4.5-2.9 9.3-8.9v7l-4.8 4.8zm11.4 0l-4.8-4.8v-7l9.3 8.9-4.5 2.9zm-10.4 1.5l4.7-4.7 4.7 4.7v11.9l-4.6 4.6h-.2l-4.6-4.6V214zm5.6 18.2l4.8-4.8 4.6 3.4-9.4 8.2v-6.8zm5.6-6.4V214l4.3-2.8V229l-4.3-3.2zm-16.7 5.1l4.6-3.4 4.8 4.8v6.7l-9.4-8.1zM799 34.3v-1.8h-7.9v-1.7c0-.5-.4-.9-.9-.9h-18.3v-2c0-.5-.4-.9-.9-.9h-14.3c-.2 0-.5.1-.6.3l-5.1 5.1c-.2.2-.3.4-.3.6v57.3c0 .2.1.5.3.6l5.1 5.1c.2.2.4.3.6.3H771c.5 0 .9-.4.9-.9v-2h18.3c.5 0 .9-.4.9-.9v-1.7h7.9V89h-7.9V34.3h7.9zm-28.9-4.1c-.1.2-.2.4-.2.6v61.8c0 .2.1.4.2.6v1.4h-13l-4.6-4.6V33.5l4.6-4.6h13v1.3zm2.9 61.5h-1.1v-60h1.1v60zm16.3 0h-14.5v-60h14.5v60z"/><path d="M763.9 91c1.8 0 3.1-1 3.1-2.3 0-1.3-1.4-2.3-3.1-2.3-1.7 0-3.1 1-3.1 2.3 0 1.3 1.4 2.3 3.1 2.3zm0-3.4c1.2 0 2 .6 2 1.2s-.8 1.2-2 1.2-2-.6-2-1.2.8-1.2 2-1.2zm0-50.7c1.8 0 3.1-1 3.1-2.3 0-1.3-1.4-2.3-3.1-2.3-1.7 0-3.1 1-3.1 2.3 0 1.3 1.4 2.3 3.1 2.3zm0-3.4c1.2 0 2 .6 2 1.2s-.8 1.2-2 1.2-2-.6-2-1.2.8-1.2 2-1.2zm0 40.3c1.7 0 3.1-1.4 3.1-3.1 0-1.7-1.4-3.1-3.1-3.1-1.7 0-3.1 1.4-3.1 3.1 0 1.7 1.4 3.1 3.1 3.1zm0-5.1c1.1 0 2 .9 2 2s-.9 2-2 2-2-.9-2-2 .9-2 2-2zm0-12.9c1.7 0 3.1-1.4 3.1-3.1 0-1.7-1.4-3.1-3.1-3.1-1.7 0-3.1 1.4-3.1 3.1 0 1.7 1.4 3.1 3.1 3.1zm0-5.2c1.1 0 2 .9 2 2s-.9 2-2 2-2-.9-2-2c0-1 .9-2 2-2zM69.5 63.4h.6c.2 0 .4-.2.4-.4s-.2-.4-.4-.4h-.6c-.4 0-.7-.3-.7-.6s.3-.6.7-.6h.6c.2 0 .4-.2.4-.4s-.2-.4-.4-.4h-.6c-.8 0-1.4.6-1.4 1.4 0 .8.7 1.4 1.4 1.4zM91.3 35v27c0 .4.3.7.7.7.4 0 .7-.3.7-.7V35c0-.4-.3-.7-.7-.7-.4 0-.7.3-.7.7z"/><path d="M100.6 32.7l-8-5.1c-.1-.1-.3-.1-.5-.1H80.7c-.5 0-.9.4-.9.9V33h-4.1c-.3-1.4-1.5-2.5-3-2.5h-3.2c-1.5 0-2.7 1.1-3 2.5h-9.3v-2.2c0-.3-.1-.6-.4-.7l-3.4-2.4c-.2-.1-.3-.2-.5-.2H43l-7.2-8.9c-.2-.3-.6-.4-1-.3-.4.1-.6.5-.6.8v6.3l-5.5-6.8c-.2-.3-.6-.4-1-.3-.4.1-.6.5-.6.8V25L22 18.5c-.2-.3-.6-.4-1-.3-.4.1-.6.5-.6.8v8.4h-2.6c-.2 0-.4.1-.5.2l-4.1 3c-.2.2-.4.4-.4.7v1.6H-1v1.8h13.8v54.7H-1v1.8h13.8v5c0 .3.2.7.5.8l14.8 7.3v6.4h-3.7c-.5 0-.9.4-.9.9v5.6c0 .2.1.5.3.6l5.1 5.1c.2.2.4.3.6.3h17.3c.5 0 .9-.4.9-.9v-10.8c0-.5-.4-.9-.9-.9h-2.5v-3.3c.1 0 .2.1.3.1h5.6c.5 0 .9-.4.9-.9v-2.3l5.6-2.3c.3-.1.6-.5.6-.8v-10h9.3c.3 1.3 1.5 2.3 3 2.3h3.2c1.4 0 2.6-1 3-2.3H80v4.6c0 .5.4.9.9.9h11.4c.2 0 .3 0 .5-.1l8-5.1c.3-.2.4-.4.4-.8V33.4c-.2-.3-.3-.6-.6-.7zM36.1 21.6l7.3 9.1v3H41l-5-6.2.1-5.9zM29 26.8v-5.2l9.7 12.1h-4.5l-5.3-6.6c.1-.1.1-.2.1-.3zm-6.8-5.2l9.7 12.1h-9.7V21.6zm-7.6 74V31.8l3.5-2.5h2.3v5.4c0 .5.4.9.9.9h22.3v67.3H29.2l-14.6-7.3zm19.7 11.2h-4.5v-2.2h12.6v6.1H29.9v-2.2h4.5c.5 0 .9-.4.9-.9s-.5-.8-1-.8zm11.6 5.7v9h-16l-4.6-4.6v-4.4h20.6zm3.4-8.8v2h-3.8V29.2h3.8v74.5zm6.1-3.1l-4.3 1.8V29.2h1.5l2.8 2v69.4zm14.1-69.1h3.2c.9 0 1.7.6 1.9 1.4h-7c.2-.8 1-1.4 1.9-1.4zm3.2 61h-3.2c-.8 0-1.5-.5-1.8-1.3h6.9c-.4.8-1.1 1.3-1.9 1.3zm7.1-3.1H57.2V34.7h22.6v54.7zm19.4.8l-7.4 4.7H81.6V29.2h10.2l7.4 4.7v56.3z"/><path d="M92 70c-.4 0-.7.3-.7.7v5.8c0 .4.3.7.7.7.4 0 .7-.3.7-.7v-5.8c0-.3-.3-.7-.7-.7zm-75.4 9c-.5 0-.9.4-.9.9v7.6c0 .5.4.9.9.9s.9-.4.9-.9v-7.6c0-.5-.4-.9-.9-.9zm0-44.9c-.5 0-.9.4-.9.9v41.1c0 .5.4.9.9.9s.9-.4.9-.9V35c0-.5-.4-.9-.9-.9zM69.5 47h.6c.2 0 .4-.2.4-.4s-.2-.4-.4-.4h-.6c-.4 0-.7-.3-.7-.6 0-.4.3-.6.7-.6h.6c.2 0 .4-.2.4-.4s-.2-.4-.4-.4h-.6c-.8 0-1.4.6-1.4 1.4.1.8.7 1.4 1.4 1.4zm0 18.2h3.2c1.7 0 3.1-1.4 3.1-3.1 0-1.7-1.4-3.1-3.1-3.1h-3.2c-1.7 0-3.1 1.4-3.1 3.1 0 1.7 1.4 3.1 3.1 3.1zm0-5h3.2c1.1 0 2 .9 2 2s-.9 2-2 2h-3.2c-1.1 0-2-.9-2-2s.9-2 2-2zM92 80.4c-.4 0-.7.3-.7.7v10c0 .4.3.7.7.7.4 0 .7-.3.7-.7v-10c0-.4-.3-.7-.7-.7z"/><path d="M69.5 48.7h3.2c1.7 0 3.1-1.4 3.1-3.1 0-1.7-1.4-3.1-3.1-3.1h-3.2c-1.7 0-3.1 1.4-3.1 3.1 0 1.8 1.4 3.1 3.1 3.1zm0-5h3.2c1.1 0 2 .9 2 2s-.9 2-2 2h-3.2c-1.1 0-2-.9-2-2s.9-2 2-2zm0 36.3h.6c.2 0 .4-.2.4-.4s-.2-.4-.4-.4h-.6c-.4 0-.7-.3-.7-.6s.3-.7.7-.7h.6c.2 0 .4-.2.4-.4s-.2-.4-.4-.4h-.6c-.8 0-1.4.6-1.4 1.4.1.8.7 1.5 1.4 1.5z"/><path d="M69.5 81.6h3.2c1.7 0 3.1-1.4 3.1-3.1 0-1.7-1.4-3.1-3.1-3.1h-3.2c-1.7 0-3.1 1.4-3.1 3.1 0 1.8 1.4 3.1 3.1 3.1zm0-5h3.2c1.1 0 2 .9 2 2s-.9 2-2 2h-3.2c-1.1 0-2-.9-2-2s.9-2 2-2zM295.6 24c3 0 5.5-2.5 5.5-5.5s-2.5-5.5-5.5-5.5-5.5 2.5-5.5 5.5 2.5 5.5 5.5 5.5zm0-10c2.5 0 4.5 2 4.5 4.5s-2 4.5-4.5 4.5-4.5-2-4.5-4.5 2-4.5 4.5-4.5zm142.6 26.1c3 0 5.5-2.5 5.5-5.5s-2.5-5.5-5.5-5.5-5.5 2.5-5.5 5.5 2.5 5.5 5.5 5.5zm0-10c2.5 0 4.5 2 4.5 4.5s-2 4.5-4.5 4.5-4.5-2-4.5-4.5 2.1-4.5 4.5-4.5zm161.9 4.6c3 0 5.5-2.5 5.5-5.5s-2.5-5.5-5.5-5.5-5.5 2.5-5.5 5.5 2.5 5.5 5.5 5.5zm0-10c2.5 0 4.5 2 4.5 4.5s-2 4.5-4.5 4.5-4.5-2-4.5-4.5 2-4.5 4.5-4.5zM618.6 206c0-3-2.5-5.5-5.5-5.5s-5.5 2.5-5.5 5.5 2.5 5.5 5.5 5.5 5.5-2.4 5.5-5.5zm-5.5 4.5c-2.5 0-4.5-2-4.5-4.5s2-4.5 4.5-4.5 4.5 2 4.5 4.5-2.1 4.5-4.5 4.5zm-91.7-70.9c-3 0-5.5 2.5-5.5 5.5s2.5 5.5 5.5 5.5 5.5-2.5 5.5-5.5-2.5-5.5-5.5-5.5zm0 10c-2.5 0-4.5-2-4.5-4.5s2-4.5 4.5-4.5 4.5 2 4.5 4.5-2.1 4.5-4.5 4.5zM20.2 211.2l-16-16c-1.4-1.4-3.3-2.1-5.2-1.9v2.1h.4c1.2 0 2.4.5 3.3 1.4l9.7 9.7c-1.5.6-5.6 2-10.4-.3-.4-.2-.9 0-1.1.4-.2.4 0 .9.4 1.1 2.3 1.1 4.4 1.5 6.3 1.5 3.1 0 5.4-1.1 6-1.4l5.2 5.2c1.8 1.8 1.8 4.8 0 6.6l-7.2 7.2c-1.8 1.8-4.8 1.8-6.6 0l-6-6v2.9l4.5 4.5c1.3 1.3 3 2 4.7 2 1.7 0 3.4-.7 4.7-2l7.2-7.2c2.7-2.9 2.7-7.1.1-9.8zm773.2-19.1l.7-.7c.3-.3.3-.8 0-1.1l-2.4-2.4c-.2-.2-.4-.2-.6-.2-.2 0-.4.1-.6.2l-1.4 1.4-1.6-1.6c-.3-.3-.8-.3-1.1 0l-6.4 6.4c-.2.2-.2.4-.2.6 0 .2.1.4.2.6l1.6 1.6-1.4 1.4c-.3.3-.3.8 0 1.1l2.4 2.4c.2.2.4.2.6.2.2 0 .4-.1.6-.2l.7-.7 2.1 2.1c-.8 1.1-1.3 2.5-1.3 4 0 1.8.7 3.5 2 4.7l11.8 11.8v-2.9l-10.4-10.4c-.9-.9-1.4-2-1.4-3.3 1.3-.5 4.6-1.5 8.7-.9.5.1.9-.2.9-.7.1-.4-.2-.9-.7-.9-3.7-.6-6.8.1-8.6.6.2-.5.6-1 1-1.5l7.2-7.2c.9-.9 2-1.3 3.2-1.4v-2c-1.2 0-2.4.4-3.5 1l-2.1-2zm-6.5-2.7l1 1-5.2 5.2-1-1 5.2-5.2zm-2.5 9.4c-.2 0-.4.1-.6.3-.2.2-.2.4-.3.6l-.5.5-1.3-1.3 9.2-9.2 1.3 1.3-.5.5c-.2 0-.4.1-.6.3-.2.2-.2.4-.3.6l-6.4 6.4zm3.5 2.9l-2.1-2.1 6.1-6.1 2.1 2.1-6.1 6.1zM14.8 269.6c-.9-4.1-8.7-8-15.8-8v1.6c6.6 0 13.3 3.6 14.2 6.6-.1.2-.2.4-.3.7-.7-.9-2-2.2-4.1-3.4-.3-.2-.7-.1-.9.2-.2.3-.1.7.2.9 2.4 1.4 3.7 2.9 4.2 3.6-.1.2-.2.4-.3.7-5.3-5.4-10.9-5.7-12.5-5.6-.2 0-.4.1-.5.2v1.1c.1.2.3.3.6.2 1.5 0 6.8.3 11.7 5.6-1.7 3.6-4.5 8.5-7.6 11.7l-4-.4c-.3 0-.5.1-.7.3v1.1c.1.1.3.2.5.3l4.8.5 1 1.6-4.1 7.7-1.3.4c-.3-.2-.6-.2-.9-.2v1.6c.4 0 .9-.1 1.3-.2l1.3-.4 8.8 67.5L-1 376.1v1.9c.2 0 .4-.1.5-.2l12.2-11.4c.2-.2.3-.4.2-.7L3 297.1c0-.1-.1-.3-.2-.4l3.7-7.1c.9-.8 6.8-6 7.8-9.9 1.3-5 .5-9.9.5-10.1zm-2 9.8c-.7 2.8-4.6 6.7-6.5 8.3l-1-1.6c3.1-3.3 5.7-8 7.3-11.5.1-.1.3-.2.4-.3.1-.2.2-.4.4-.7.1 1.7 0 3.7-.6 5.8zm770.5-10c0 .1-.1.2-.1.3 0 .2-.8 5 .4 10.1.9 3.8 6.4 9.1 7.2 9.9l4.1 7.7-8.9 68.4c0 .3.1.5.2.7l12.2 11.4c.2.1.3.2.5.2v-1.9l-11.4-10.6 8.8-67.4.8.2c.5.1 1 .2 1.6.2h.3V297c-.5 0-1 0-1.4-.1l-1.3-.4-4.1-7.7 1-1.6.6-.1c.2 0 .3 0 .5-.1l3.7-.4c.4 0 .7-.4.7-.9 0-.4-.4-.7-.9-.7l-3.6.4c-3.1-3.2-5.8-8.1-7.6-11.6 4.9-5.3 10.2-5.6 11.7-5.6.2 0 .5-.1.6-.3v-.9c-.1-.2-.3-.3-.6-.3-1.6 0-7.2.3-12.5 5.6-.1-.2-.2-.5-.3-.7.8-1.1 3.9-4.6 10.9-6 .3-.1.6-.4.5-.7-.1-.3-.4-.6-.7-.5-6.5 1.3-9.8 4.3-11.2 6-.1-.3-.2-.5-.3-.6.9-3 7.6-6.6 14.2-6.6v-1.6c-6.8 0-14.5 3.8-15.6 7.8zm1.6 4.9c.1.1.2.2.4.3 1.6 3.4 4.1 7.9 7.1 11.2l-.3.3-1 1.6c-1.7-1.7-5.3-5.5-6-8.3-.5-2.1-.6-4.1-.6-5.8.1.2.3.5.4.7z"/><path d="M799 286.5v-1.1c-.1.1-.2.3-.2.4 0 .3 0 .5.2.7zm-6.2 62.7c-.3 0-.7.2-.7.6l-.8 7.1c0 .3.2.7.6.7h.1c.3 0 .6-.2.6-.6l.8-7.1c0-.4-.3-.7-.6-.7zm1.2-4.8l3.7-33.9c0-.3-.2-.7-.6-.7-.4 0-.7.2-.7.6l-3.7 33.9c0 .3.2.7.6.7h.1c.2-.1.5-.3.6-.6zm-656.1-26.8c1.6-4.4.5-9.3-2.6-12.5l-.1-.1c-2.7-2.1-5.6-3.1-5.9-3.2-5.8-2.1-12.4 1.3-14.6 7.5-2.2 6.2.7 13 6.5 15.1h.1c.6.2 3.3 1.1 6.5 1.2h.1c4.5-.4 8.4-3.6 10-8zm-16.3 5.7c-5.2-1.9-7.8-7.9-5.8-13.5s7.9-8.7 13.1-6.8c5.2 1.9 7.8 7.9 5.8 13.5s-7.9 8.6-13.1 6.8zm6.9 1c3.2-1.2 6-3.8 7.3-7.5 1.3-3.6.8-7.4-.9-10.4 2.4 2.9 3.1 7 1.8 10.7-1.3 3.8-4.5 6.5-8.2 7.2z"/><path d="M128.3 304.4c-4.5-1.6-9.5 1-11.2 5.8-1.7 4.8.5 10 5 11.6 4.5 1.6 9.5-1 11.2-5.8 1.7-4.8-.5-10-5-11.6zm4.2 11.3c-1.5 4.3-6 6.6-10 5.2-4-1.4-6-6.1-4.5-10.4 1.5-4.3 6-6.6 10-5.2 4 1.4 6 6.1 4.5 10.4zm232.6 55.6c-2.1-1.6-4.5-2.5-4.7-2.5-4.6-1.6-9.8 1-11.6 6-1.8 4.9.6 10.3 5.2 11.9h.1c.4.2 2.6.9 5.2 1h.1c3.6-.4 6.7-2.9 7.9-6.4 1.2-3.5.3-7.3-2.2-10zm-10.7 14.5c-4.1-1.5-6.2-6.3-4.6-10.7 1.6-4.4 6.2-6.9 10.3-5.4 4.1 1.5 6.2 6.3 4.6 10.7-1.6 4.4-6.2 6.9-10.3 5.4zm11.9-4.8c-1 2.9-3.6 5.1-6.5 5.7 2.6-.9 4.8-3 5.8-5.9 1-2.9.7-5.9-.7-8.2 1.9 2.2 2.5 5.5 1.4 8.4z"/><path d="M359.7 370.9c-3.5-1.3-7.5.8-8.9 4.6-1.3 3.8.4 7.9 4 9.1 3.5 1.3 7.5-.8 8.9-4.6 1.3-3.8-.5-7.9-4-9.1zm3.3 8.9c-1.2 3.4-4.8 5.3-7.9 4.1-3.2-1.1-4.7-4.8-3.5-8.2 1.2-3.4 4.8-5.3 7.9-4.1 3.1 1.1 4.7 4.8 3.5 8.2zM676.1 129c.5.2 2.7.9 5.2 1h.1c3.6-.4 6.7-2.9 7.9-6.4 1.2-3.5.4-7.4-2.1-9.9h-.1c-2.1-1.6-4.5-2.5-4.7-2.5-4.6-1.6-9.8 1-11.6 6-1.6 4.8.7 10.1 5.3 11.8zm12.3-5.7c-1 2.9-3.6 5.1-6.5 5.7 2.6-.9 4.8-3 5.8-5.9 1-2.9.7-5.9-.7-8.2 1.9 2.2 2.4 5.5 1.4 8.4zm-16.6-5.9c1.6-4.4 6.2-6.9 10.3-5.4 4.1 1.5 6.2 6.3 4.6 10.7-1.6 4.4-6.2 6.9-10.3 5.4-4.1-1.5-6.1-6.3-4.6-10.7z"/><path d="M676.9 126.9c3.5 1.3 7.5-.8 8.9-4.6 1.4-3.8-.4-7.9-4-9.1-3.5-1.3-7.5.8-8.9 4.6-1.3 3.7.4 7.8 4 9.1zm-3.3-8.9c1.2-3.4 4.8-5.3 7.9-4.1 3.2 1.1 4.7 4.8 3.5 8.2-1.2 3.4-4.8 5.3-7.9 4.1-3.2-1.1-4.7-4.8-3.5-8.2zM526 217.6c.4.2 2.6.9 5.2 1h.1c3.6-.4 6.7-2.9 7.9-6.4 1.2-3.5.4-7.4-2.1-9.9h-.1c-2.1-1.6-4.5-2.5-4.7-2.5-4.6-1.6-9.8 1-11.6 6-1.7 4.8.7 10.1 5.3 11.8zm12.2-5.7c-1 2.9-3.6 5.1-6.5 5.7 2.6-.9 4.8-3 5.8-5.9 1-2.9.7-5.9-.7-8.2 1.9 2.2 2.5 5.5 1.4 8.4zm-16.5-5.9c1.6-4.4 6.2-6.9 10.3-5.4 4.1 1.5 6.2 6.3 4.6 10.7-1.6 4.4-6.2 6.9-10.3 5.4-4.1-1.5-6.2-6.3-4.6-10.7z"/><path d="M535.6 210.9c1.3-3.8-.4-7.9-4-9.1-3.5-1.3-7.5.8-8.9 4.6-1.3 3.8.4 7.9 4 9.1 3.6 1.3 7.5-.8 8.9-4.6zm-12.2-4.3c1.2-3.4 4.8-5.3 7.9-4.1 3.1 1.2 4.7 4.8 3.5 8.2-1.2 3.4-4.8 5.3-7.9 4.1-3.1-1.1-4.7-4.8-3.5-8.2zm-139.6-87.5c-2.2-1.7-4.5-2.5-4.7-2.6-4.6-1.6-9.8 1-11.6 6-1.8 4.9.6 10.3 5.2 11.9h.1c.4.2 2.6.9 5.2 1h.1c3.6-.4 6.7-2.9 7.9-6.4 1.1-3.4.3-7.3-2.2-9.9zM373 133.5c-4.1-1.5-6.2-6.3-4.6-10.7 1.6-4.4 6.2-6.9 10.3-5.4 4.1 1.5 6.2 6.3 4.6 10.7-1.5 4.5-6.2 6.9-10.3 5.4zm12-4.8c-1 2.9-3.6 5.1-6.5 5.7 2.6-.9 4.8-3 5.8-5.9 1-2.9.7-5.9-.7-8.2 1.8 2.3 2.4 5.5 1.4 8.4z"/><path d="M378.3 118.6c-3.5-1.3-7.5.8-8.9 4.6-1.4 3.8.4 7.9 4 9.1 3.5 1.3 7.5-.8 8.9-4.6 1.4-3.8-.4-7.8-4-9.1zm3.3 8.9c-1.2 3.4-4.8 5.3-7.9 4.1-3.1-1.2-4.7-4.8-3.5-8.2 1.2-3.4 4.8-5.3 7.9-4.1 3.2 1.1 4.7 4.8 3.5 8.2zM125.2 85.4c2.5-1.3 4.2-3 4.3-3.2 3.4-3.5 3.2-9.3-.5-13-3.7-3.7-9.6-3.8-13-.3l-.1.1c-.3.3-1.9 2-3 4.3v.1c-1.1 3.4-.2 7.3 2.5 9.8 2.6 2.5 6.4 3.4 9.8 2.2zm-8.5-15.8c3.1-3.1 8.3-3 11.7.3 3.4 3.3 3.6 8.5.5 11.6-3.1 3.1-8.3 3-11.6-.4-3.4-3.2-3.7-8.4-.6-11.5zm-3.1 4.6c-.2 2.7.7 5.6 2.9 7.7 2.2 2.1 5.1 3.1 7.8 2.8-2.9.8-6.1-.1-8.3-2.3-2.2-2.1-3.1-5.3-2.4-8.2z"/><path d="M128 80.7c2.6-2.7 2.5-7.1-.4-10-2.9-2.8-7.3-2.9-10-.3-2.6 2.7-2.5 7.1.4 10 2.9 2.9 7.3 3 10 .3zm-9.9-9.7c2.4-2.4 6.4-2.3 9 .3 2.6 2.5 2.8 6.6.4 8.9-2.4 2.4-6.4 2.3-9-.3-2.6-2.5-2.8-6.5-.4-8.9zm-5.7 126.6c3 0 5.5-2.5 5.5-5.5s-2.5-5.5-5.5-5.5-5.5 2.5-5.5 5.5 2.5 5.5 5.5 5.5zm0-10c2.5 0 4.5 2 4.5 4.5s-2 4.5-4.5 4.5-4.5-2-4.5-4.5 2-4.5 4.5-4.5zM27 321.2c3 0 5.5-2.5 5.5-5.5s-2.5-5.5-5.5-5.5-5.5 2.5-5.5 5.5 2.5 5.5 5.5 5.5zm0-10c2.5 0 4.5 2 4.5 4.5s-2 4.5-4.5 4.5-4.5-2-4.5-4.5 2.1-4.5 4.5-4.5zm348.9-73.6c-3 0-5.5 2.5-5.5 5.5s2.5 5.5 5.5 5.5 5.5-2.5 5.5-5.5-2.5-5.5-5.5-5.5zm0 10c-2.5 0-4.5-2-4.5-4.5s2-4.5 4.5-4.5 4.5 2 4.5 4.5-2 4.5-4.5 4.5zm13.7 95c0 3 2.5 5.5 5.5 5.5s5.5-2.5 5.5-5.5-2.5-5.5-5.5-5.5-5.5 2.4-5.5 5.5zm5.5-4.5c2.5 0 4.5 2 4.5 4.5s-2 4.5-4.5 4.5-4.5-2-4.5-4.5 2-4.5 4.5-4.5zM682.5 87.2c3 0 5.5-2.5 5.5-5.5s-2.5-5.5-5.5-5.5-5.5 2.5-5.5 5.5 2.4 5.5 5.5 5.5zm0-10c2.5 0 4.5 2 4.5 4.5s-2 4.5-4.5 4.5-4.5-2-4.5-4.5 2-4.5 4.5-4.5zm67.2 93.3c0 3 2.5 5.5 5.5 5.5s5.5-2.5 5.5-5.5-2.5-5.5-5.5-5.5-5.5 2.5-5.5 5.5zm5.5-4.5c2.5 0 4.5 2 4.5 4.5s-2 4.5-4.5 4.5-4.5-2-4.5-4.5 2-4.5 4.5-4.5zM555.7 316.9c-3 0-5.5 2.5-5.5 5.5s2.5 5.5 5.5 5.5 5.5-2.5 5.5-5.5-2.5-5.5-5.5-5.5zm0 10c-2.5 0-4.5-2-4.5-4.5s2-4.5 4.5-4.5 4.5 2 4.5 4.5-2 4.5-4.5 4.5zm48.9 47.5c-3 0-5.5 2.5-5.5 5.5s2.5 5.5 5.5 5.5 5.5-2.5 5.5-5.5-2.5-5.5-5.5-5.5zm0 10c-2.5 0-4.5-2-4.5-4.5s2-4.5 4.5-4.5 4.5 2 4.5 4.5-2 4.5-4.5 4.5zm-298.2-9.8c-3 0-5.5 2.5-5.5 5.5s2.5 5.5 5.5 5.5 5.5-2.5 5.5-5.5-2.4-5.5-5.5-5.5zm0 10c-2.5 0-4.5-2-4.5-4.5s2-4.5 4.5-4.5 4.5 2 4.5 4.5-2 4.5-4.5 4.5zm-123.3-22c-3 0-5.5 2.5-5.5 5.5s2.5 5.5 5.5 5.5 5.5-2.5 5.5-5.5-2.5-5.5-5.5-5.5zm0 10c-2.5 0-4.5-2-4.5-4.5s2-4.5 4.5-4.5 4.5 2 4.5 4.5-2 4.5-4.5 4.5zM675 332.1c-3 0-5.5 2.5-5.5 5.5s2.5 5.5 5.5 5.5 5.5-2.5 5.5-5.5-2.5-5.5-5.5-5.5zm0 10c-2.5 0-4.5-2-4.5-4.5s2-4.5 4.5-4.5 4.5 2 4.5 4.5-2 4.5-4.5 4.5zM238.7 85c0 3 2.5 5.5 5.5 5.5s5.5-2.5 5.5-5.5-2.5-5.5-5.5-5.5-5.5 2.5-5.5 5.5zm5.5-4.5c2.5 0 4.5 2 4.5 4.5s-2 4.5-4.5 4.5-4.5-2-4.5-4.5 2-4.5 4.5-4.5zm77.6 49.5c0 3 2.5 5.5 5.5 5.5s5.5-2.5 5.5-5.5-2.5-5.5-5.5-5.5-5.5 2.5-5.5 5.5zm10 0c0 2.5-2 4.5-4.5 4.5s-4.5-2-4.5-4.5 2-4.5 4.5-4.5 4.5 2 4.5 4.5zm16.8-107.7c.1.1.2.1.4.1h.1c.2 0 .3-.2.4-.4l2.9-10.8c0-.2 0-.4-.1-.5-.1-.1-.3-.2-.5-.1L341 13.5c-.2 0-.3.2-.4.4 0 .2 0 .4.1.5l7.9 7.9zm2.5-10.5l-2.5 9.2-6.7-6.7 9.2-2.5zm72.5 121.8l11.2-.4c.1 0 .3-.1.3-.2l.1-.1c.1-.2.1-.3 0-.5l-5.9-9.5c-.1-.2-.3-.2-.4-.2-.2 0-.3.1-.4.3l-5.3 9.9c-.1.2-.1.3 0 .5 0 .1.2.2.4.2zm5.3-9.4l5 8-9.5.3 4.5-8.3zm273.6-68c0 .2.2.3.4.4.2 0 .4 0 .5-.1l7.9-8c.1-.1.1-.2.1-.4V48c0-.2-.2-.3-.4-.4l-10.8-2.8c-.2 0-.4 0-.5.1-.1.1-.2.3-.1.5l2.9 10.8zm7.4-7.8l-6.7 6.7-2.5-9.1 9.2 2.4zm42.7 90.1l11.2.7c.1 0 .3 0 .4-.1l.1-.1c.1-.1.1-.3 0-.5l-5-10c-.1-.2-.2-.3-.4-.3s-.3.1-.4.2l-6.2 9.3c-.1.1-.1.3 0 .5 0 .1.1.2.3.3zm6.2-8.9l4.2 8.5-9.5-.6 5.3-7.9zm-221.4-24.8h.4s.1 0 .1-.1c.1-.1.2-.3.1-.5l-2.7-10.9c0-.2-.2-.3-.3-.4-.2 0-.4 0-.5.1l-8 7.8c-.1.1-.2.3-.1.5 0 .2.2.3.3.4l10.7 3.1zm-2.8-10.4l2.3 9.2-9.1-2.6 6.8-6.6zm142.9 102.3c-.2 0-.3.1-.4.3l-5 10c-.1.2-.1.3 0 .5.1.1.3.2.4.2l11.2-.6c.1 0 .3-.1.3-.2l.1-.1c.1-.2.1-.3 0-.5L678 197c-.1-.2-.3-.3-.5-.3zm-4.2 10l4.3-8.5 5.2 7.9-9.5.6zM41.6 15.6l11.1 1.1h.1c.2 0 .3-.1.4-.2.1-.1.1-.3.1-.5L48.7 5.9c-.1-.2-.2-.3-.4-.3s-.4.1-.5.2l-6.6 9.1c-.1.1-.1.3-.1.5.2.1.3.2.5.2zm6.5-8.5l3.9 8.6-9.4-1 5.5-7.6zm138.9 167c-.2 0-.3.1-.4.3l-4.8 10.1c-.1.2-.1.4 0 .5.1.1.2.2.4.2l11.2-1c.2 0 .3-.1.4-.3.1-.2.1-.4 0-.5l-6.4-9.2c-.1 0-.2-.1-.4-.1zm-3.9 10.1l4-8.6 5.4 7.8-9.4.8zM51.3 197.4c0 .2.1.3.2.4l10.1 4.8c.2.1.4.1.5 0 .1-.1.2-.3.2-.5l-.8-11.1c0-.2-.1-.3-.3-.4-.2-.1-.4-.1-.5 0l-9.2 6.4c-.1.1-.2.3-.2.4zm9.3-5.5l.8 9.4-8.6-4.1 7.8-5.3zM255 227.6c.1-.1.2-.3.2-.4 0-.2-.1-.3-.3-.4l-10-5c-.2-.1-.4-.1-.5 0-.1.1-.2.3-.2.4l.7 11.2c0 .2.1.3.3.4.1 0 .1.1.2.1s.2 0 .3-.1l9.3-6.2zm-9.8-4.6l8.5 4.2-7.9 5.3-.6-9.5zm528.4 156.1l-10-5c-.2-.1-.4-.1-.5 0-.1.1-.2.3-.2.4l.7 11.2c0 .2.1.3.3.4.1 0 .1.1.2.1s.2 0 .3-.1l9.3-6.2c.1-.1.2-.3.2-.4-.1-.2-.2-.4-.3-.4zm-9.1 5.7l-.6-9.5 8.5 4.2-7.9 5.3zM333.8 346l-10.1 4.9c-.2.1-.3.2-.3.4s.1.3.2.4l9.3 6.2c.1.1.3.1.4.1h.1c.2-.1.3-.2.3-.4l.7-11.2c0-.2-.1-.3-.2-.4-.1-.1-.2-.1-.4 0zm-1 10.7l-7.9-5.3 8.5-4.2-.6 9.5zm38.6-64.5c-.1-.2-.2-.3-.4-.3s-.3.1-.4.2l-6 9.4c-.1.2-.1.3 0 .5s.2.3.4.3l11.2.5c.2 0 .3-.1.4-.2v-.1c.1-.2.1-.3 0-.5l-5.2-9.8zm-5.6 9.2l5.1-8 4.4 8.4-9.5-.4zm70.8 63.6l-11.2.2c-.2 0-.3.1-.4.3-.1.2-.1.3 0 .5l5.8 9.6c.1.1.2.2.4.2h.1c.2 0 .3-.1.4-.3l5.4-9.8c.1-.2.1-.3 0-.5-.1-.1-.3-.2-.5-.2zm-5.4 9.3l-4.9-8.1 9.5-.2-4.6 8.3zm91.9-30.7l-10.1 4.9c-.2.1-.3.2-.3.4s.1.3.2.4l9.3 6.2c.1.1.3.1.4.1h.1c.2-.1.3-.2.3-.4l.7-11.2c0-.2-.1-.3-.2-.4 0-.1-.2-.1-.4 0zm-1 10.7l-7.9-5.3 8.5-4.2-.6 9.5zm244.7-43.4c.2-.1.3-.3.4-.4l.7-11.2c0-.2-.1-.3-.2-.4-.1-.1-.3-.1-.5 0l-10.1 4.9c-.2.1-.3.2-.3.4s.1.3.2.4l9.3 6.2c.2.1.4.1.5.1zm-8.4-6.6l8.5-4.2-.6 9.5-7.9-5.3zm-641.9 47.5c-.2 0-.4 0-.5.1l-8.1 7.8c-.1.1-.2.3-.1.5 0 .2.2.3.3.4l10.8 3.1h.1c.1 0 .3 0 .3-.1.1-.1.2-.3.1-.5l-2.7-10.9c.1-.2-.1-.3-.2-.4zm-7.3 8.1l6.8-6.6 2.3 9.2-9.1-2.6zm-79.8 9.3c-.1-.2-.2-.3-.4-.3s-.4.1-.5.2l-6.6 9.1c-.1.1-.1.3-.1.5.1.2.2.3.4.3l11.1 1.2h.1c.2 0 .3-.1.4-.2.1-.1.1-.3.1-.5l-4.5-10.3zm-6.1 8.9l5.6-7.7 3.8 8.7-9.4-1zm69.2-143.8c-.2-.3-.5-.6-.9-.6h-.2c-.5.1-.8.5-.8 1v20.9c0 .4.3.8.7 1h.3c.3 0 .6-.2.8-.4l2-2.8c.1-.2.2-.4.2-.6v-14c0-.2 0-.3-.1-.4l-2-4.1zm1.1 18.6l-2 2.8v-20.9l2 4.1v14zm-26.5 53.7c7.4 0 13.4-6 13.4-13.4s-6-13.4-13.4-13.4-13.4 6-13.4 13.4 6 13.4 13.4 13.4zm0-25.9c6.9 0 12.4 5.6 12.4 12.4 0 6.8-5.6 12.4-12.4 12.4-6.8 0-12.4-5.6-12.4-12.4 0-6.8 5.5-12.4 12.4-12.4zm19.4-53.2c-.2-.3-.5-.4-.8-.4h-.3c-.4.1-.7.5-.7 1v33c0 .4.3.8.7 1h.3c.3 0 .6-.2.8-.4l2.7-4.1c.1-.2.2-.4.2-.6v-24.9c0-.2-.1-.4-.2-.6l-2.7-4zm1.9 29.5l-2.7 4.1v-33l2.7 4.1V257zm-45.5-23.2h-.2c-.4 0-.7.2-.9.6l-2 4.1c-.1.1-.1.3-.1.4v14c0 .2.1.4.2.6l2 2.8c.2.3.5.4.8.4h.3c.4-.1.7-.5.7-1v-20.9c0-.5-.4-.9-.8-1zm-.2 21.9l-2-2.8v-14l2-4.1v20.9z"/><path d="M67.1 299.7c3.6 0 6.6-2.9 6.6-6.6 0-3.6-2.9-6.6-6.6-6.6-3.6 0-6.6 2.9-6.6 6.6.1 3.7 3 6.6 6.6 6.6zm0-12.1c3.1 0 5.6 2.5 5.6 5.6 0 3.1-2.5 5.6-5.6 5.6-3.1 0-5.6-2.5-5.6-5.6 0-3.1 2.6-5.6 5.6-5.6zM48.6 262h.3c.4-.1.7-.5.7-1v-33c0-.4-.3-.8-.7-1h-.3c-.3 0-.6.2-.8.4l-2.7 4.1c-.1.2-.2.4-.2.6V257c0 .2.1.4.2.6l2.7 4.1c.1.2.5.3.8.3zm-2.7-29.9l2.7-4.1v33l-2.7-4.1v-24.8z"/><path d="M82.8 336.5v-35.1c1.3-2.5 2.1-5.3 2.1-8.3 0-2.9-.7-5.6-1.9-8v-59.6c0-.3-.1-.5-.3-.7-.1-.1-1.9-1.6-5.1-3.1v-1.3c0-.1-.1-.3-.1-.4-1.2-1.2-2.9-2.2-4.6-2.6-.1 0-.3 0-.4.1-.1.1-.2.2-.2.4v2.1c-.7-.2-1.5-.3-2.3-.4v-2.3c0-.3-.2-.5-.5-.5-1.7-.2-2.8-.2-4.5 0-.3 0-.5.2-.5.5v2.3c-.7.1-1.5.2-2.2.4v-2c0-.2-.1-.3-.2-.4-.1-.1-.3-.1-.4-.1-1.8.4-3.4 1.3-4.6 2.6-.1.1-.1.2-.1.4v1.5c-3.2 1.4-5 2.9-5.1 3-.2.1-.3.4-.3.6V285c-1.3 2.5-2.1 5.3-2.1 8.3 0 3 .8 5.8 2.1 8.3v35.1l-5.4 6.2c-.5.6-.6 1.4-.3 2.1.3.7 1 1.2 1.8 1.2h15.5v8.9c0 .4.3.8.8.8h.3v18H64c-.8 0-1.5.7-1.5 1.5v7.7c0 .8.7 1.5 1.5 1.5h.3v8.7h-.8c-.8 0-1.5.7-1.5 1.5v5.4h1.5v-5.4h7.6v5.4h1.5v-5.4c0-.8-.7-1.5-1.5-1.5h-.8v-8.7h.3c.8 0 1.5-.7 1.5-1.5v-7.7c0-.8-.7-1.5-1.5-1.5h-.3v-18h.3c.4 0 .8-.3.8-.8V346h15.5c.8 0 1.5-.5 1.8-1.2.3-.7.2-1.5-.3-2.1l-5.6-6.2zm-9.7-117.8c1.2.4 2.4 1.1 3.4 2v13.1h-3.4v-15.1zm-7.7-.8c1.3-.1 2.1-.1 3.4 0v15.8h-3.4v-15.8zm-7.6 2.8c1-.9 2.1-1.6 3.4-2v15.1h-3.4v-13.1zm-4.8 5.1c.5-.4 1.8-1.3 3.8-2.2v10.7c0 .3.2.5.5.5h4.4c.3 0 .5-.2.5-.5v-12.6c.7-.2 1.5-.3 2.2-.4v13c0 .3.2.5.5.5h4.4c.3 0 .5-.2.5-.5v-13c.8.1 1.5.2 2.3.4v12.6c0 .3.2.5.5.5H77c.3 0 .5-.2.5-.5v-10.6c1.8.9 3.1 1.8 3.7 2.2v56.5c-1.4-1.8-3.1-3.3-5.1-4.5v-7.7l2.6-4.9c0-.1.1-.2.1-.2v-14.4c0-.2-.1-.3-.2-.4l-1.7-2.9c.4-.6.6-1.3.6-2.1 0-2.2-1.8-4-4-4s-4 1.8-4 4 1.8 4 4 4c1.1 0 2-.4 2.7-1.1l1.5 2.8v14.1l-2.6 4.9c0 .1-.1.2-.1.2v7.3c-2.2-1.1-4.8-1.8-7.4-1.9v-13.8c3.3-.3 5.9-3 5.9-6.4 0-3.5-2.9-6.4-6.4-6.4-3.5 0-6.4 2.9-6.4 6.4 0 3.4 2.6 6.2 5.9 6.4v13.8c-2.4.1-4.8.6-6.9 1.6v-5.4l-2.4-7.6v-14.6l2.4-2c.8.9 2 1.5 3.3 1.5 2.5 0 4.5-2 4.5-4.5s-2-4.5-4.5-4.5-4.5 2-4.5 4.5c0 .8.2 1.5.6 2.1l-2.6 2.1c-.1.1-.2.2-.2.4v15.1l2.4 7.6v5.7c-2.3 1.2-4.3 3-5.9 5v-56.8h.2zm23 19.3c0 1.4-1.1 2.5-2.5 2.5s-2.5-1.1-2.5-2.5 1.1-2.5 2.5-2.5c1.3 0 2.5 1.1 2.5 2.5zm-8.8 15c-2.7 0-4.9-2.2-4.9-4.9s2.2-4.9 4.9-4.9 4.9 2.2 4.9 4.9-2.2 4.9-4.9 4.9zm-7.1-15.8c0-1.6 1.3-3 3-3s3 1.3 3 3-1.3 3-3 3-3-1.4-3-3zm-8.7 48.8c0-8.7 7-15.7 15.7-15.7s15.7 7 15.7 15.7-7 15.7-15.7 15.7-15.7-7-15.7-15.7zm29.9 10.7v31l-6.7-7.7v-17.9c2.6-1.2 4.9-3.1 6.7-5.4zm-8.2 6v15.5l-4.5-5.1c-.4-.4-.9-.7-1.5-.7s-1.1.3-1.5.7l-4.5 5.1v-15.5c1.9.7 3.9 1.1 6 1.1s4.1-.4 6-1.1zm-13.4-.6v17.9l-6.7 7.7v-31c1.7 2.3 4 4.2 6.7 5.4zm8.9 83.9h-3v-8.7h3v8.7zm1.8-18v7.7h-6.6v-7.7h6.6zm-5.5-20.9h-.3V346h5.1v8.1h-4.8v.1zm3.7 1.5v18h-3v-18h3zm-21-11.7l19.5-22.5L86.7 344H47.6zM63.3 8.1h.4c.3 1.6 1.7 2.9 3.4 2.9s3.1-1.2 3.4-2.9h.4c.8 0 1.5-.7 1.5-1.5V0h-1.5v6.6h-7.6V0h-1.5v6.6c0 .8.7 1.5 1.5 1.5zm5.7 0c-.2.8-1 1.4-1.9 1.4-.9 0-1.6-.6-1.9-1.4H69zM4.5 141.6c0-3-2.5-5.5-5.5-5.5v1c2.5 0 4.5 2 4.5 4.5s-2 4.5-4.5 4.5v1c3 0 5.5-2.5 5.5-5.5zm789 0c0 3 2.5 5.5 5.5 5.5v-1c-2.5 0-4.5-2-4.5-4.5s2-4.5 4.5-4.5v-1c-3 0-5.5 2.4-5.5 5.5zM235.9 5.9c.2 0 .4 0 .5-.1l5.9-5.7h-1.4l-4.5 4.4-1.2-4.5h-1l1.4 5.5c0 .2.1.3.3.4zm8.3 391.2l-10.8-3c-.2 0-.4 0-.5.1-.1.1-.2.3-.1.5l1.4 5.3h1l-1.2-4.8 9.1 2.6-2.3 2.2h1.4l2.1-2.1c.1-.1.1-.2.2-.4v-.1c0-.1-.1-.3-.3-.3zm162.8-114c-1.5 0-2.7 1.2-2.7 2.7 0 1.5 1.2 2.7 2.7 2.7 1.5 0 2.7-1.2 2.7-2.7-.1-1.5-1.3-2.7-2.7-2.7zm0 4.4c-1 0-1.8-.8-1.8-1.8s.8-1.8 1.8-1.8 1.8.8 1.8 1.8c-.1 1-.9 1.8-1.8 1.8zm0-19.2c-1.5 0-2.7.9-2.7 1.9 0 1.1 1.2 1.9 2.7 1.9 1.5 0 2.7-.9 2.7-1.9-.1-1.1-1.2-1.9-2.7-1.9zm0 2.9c-1 0-1.8-.5-1.8-1s.7-1 1.8-1c1 0 1.8.5 1.8 1s-.8 1-1.8 1zm0 43.6c-1.5 0-2.7.9-2.7 1.9 0 1.1 1.2 1.9 2.7 1.9 1.5 0 2.7-.9 2.7-1.9-.1-1-1.2-1.9-2.7-1.9zm0 3c-1 0-1.8-.5-1.8-1s.7-1 1.8-1c1 0 1.8.5 1.8 1-.1.5-.8 1-1.8 1zm0-19.2c-1.5 0-2.7 1.2-2.7 2.7 0 1.5 1.2 2.7 2.7 2.7 1.5 0 2.7-1.2 2.7-2.7 0-1.5-1.3-2.7-2.7-2.7zm0 4.4c-1 0-1.8-.8-1.8-1.8s.8-1.8 1.8-1.8 1.8.8 1.8 1.8c-.1 1-.9 1.8-1.8 1.8zm90.1-21h2.8c1.4 0 2.6-1.2 2.6-2.6 0-1.4-1.2-2.6-2.6-2.6h-2.8c-1.4 0-2.6 1.2-2.6 2.6-.1 1.4 1.1 2.6 2.6 2.6zm0-4.3h2.8c.9 0 1.7.8 1.7 1.7 0 .9-.8 1.7-1.7 1.7h-2.8c-.9 0-1.7-.8-1.7-1.7 0-.9.7-1.7 1.7-1.7zm0 18.5h2.8c1.4 0 2.6-1.2 2.6-2.6 0-1.4-1.2-2.6-2.6-2.6h-2.8c-1.4 0-2.6 1.2-2.6 2.6 0 1.4 1.1 2.6 2.6 2.6zm0-4.3h2.8c.9 0 1.7.8 1.7 1.7 0 .9-.8 1.7-1.7 1.7h-2.8c-.9 0-1.7-.8-1.7-1.7 0-.9.7-1.7 1.7-1.7zm2.8 13.2h-2.8c-1.4 0-2.6 1.2-2.6 2.6 0 1.4 1.2 2.6 2.6 2.6h2.8c1.4 0 2.6-1.2 2.6-2.6 0-1.4-1.2-2.6-2.6-2.6zm0 4.3h-2.8c-.9 0-1.7-.8-1.7-1.7 0-.9.8-1.7 1.7-1.7h2.8c.9 0 1.7.8 1.7 1.7 0 1-.8 1.7-1.7 1.7z"/><path d="M478.3 345.4v-9.3c0-.4-.3-.8-.8-.8h-2.2v-2.8c.1 0 .2.1.3.1h4.8c.4 0 .8-.3.8-.8v-1.9l4.8-2c.3-.1.5-.4.5-.7v-8.6h8c.3 1.2 1.3 2 2.5 2h2.8c1.2 0 2.3-.9 2.5-2h3.6v4c0 .4.3.8.8.8h9.8c.1 0 .3 0 .4-.1l6.9-4.4c.2-.1.4-.4.4-.7v-49.3c0-.3-.1-.5-.4-.7l-6.9-4.4c-.1-.1-.3-.1-.4-.1h-9.8c-.4 0-.8.3-.8.8v4h-3.5c-.2-1.2-1.3-2.2-2.6-2.2H497c-1.3 0-2.4.9-2.6 2.2h-8v-1.9c0-.3-.1-.5-.3-.6l-3-2.1c-.1-.1-.3-.1-.4-.1h-8.4l-6.2-7.7c-.2-.3-.5-.4-.9-.2-.3.1-.5.4-.5.7v5.4l-4.7-5.9c-.2-.3-.6-.4-.9-.2-.3.1-.5.4-.5.7v5.1l-4.5-5.6c-.2-.3-.6-.4-.9-.2-.3.1-.5.4-.5.7v7.2h-2.2c-.2 0-.3.1-.5.1l-3.5 2.6c-.2.1-.3.4-.3.6v1.4h-18V267c0-.4-.3-.8-.8-.8h-15.7v-1.7c0-.4-.3-.8-.8-.8h-12.3c-.2 0-.4.1-.5.2l-4.4 4.4c-.1.1-.2.3-.2.5V318c0 .2.1.4.2.5l4.4 4.4c.1.1.3.2.5.2H413c.4 0 .8-.3.8-.8v-1.7h15.7c.4 0 .8-.3.8-.8v-1.5h18v4.3c0 .3.2.6.4.7l12.7 6.3v5.5h-3.2c-.4 0-.8.3-.8.8v4.8c0 .2.1.4.2.5l4.4 4.4c.1.1.3.2.5.2h14.9c.6.4.9 0 .9-.4zm21.6-25.7h-2.8c-.7 0-1.3-.5-1.6-1.1h5.9c-.2.6-.8 1.1-1.5 1.1zm7.6-54.5h8.8l6.3 4.1v48.4l-6.3 4.1h-8.8v-56.6zm-10.4 2h2.8c.8 0 1.4.5 1.6 1.2h-6.1c.2-.7.9-1.2 1.7-1.2zm8.9 2.8v47h-19.5v-47H506zm-21-3.1v59.7l-3.7 1.5v-63h1.3l2.4 1.8zm-5.3-1.7V331h-3.3v-65.8h3.3zm-11.4-6.5l6.3 7.8v2.6h-2l-4.3-5.3v-5.1zm-6.1 4.5v-4.5l8.4 10.4h-3.9l-4.6-5.7c.1-.1.1-.1.1-.2zm-5.8-4.5l8.4 10.4h-8.4v-10.4zm-55.3 63.1l-4-4v-48.6l4-4h11.2v1.2c-.1.1-.2.3-.2.5V320c0 .2.1.4.2.5v1.2l-11.2.1zm12.7-54.1h.9v51.6h-.9v-51.6zm14.9 51.6h-12.5v-51.6h12.5v51.6zm1.6-2.3v-47h18v47h-18zm19.6-49.6l3-2.2h2v4.6c0 .4.3.8.8.8h19.4v57.9h-12.5l-12.6-6.2-.1-54.9zm13.1 66.1h3.9c.4 0 .8-.3.8-.8s-.3-.8-.8-.8H463V330h10.9v5.2H463v-1.7zm13.8 11.1H463l-4-4v-3.7h17.8v7.7z"/><path d="M497.1 294.7h.6c.2 0 .3-.1.3-.3 0-.2-.1-.3-.3-.3h-.6c-.3 0-.6-.3-.6-.6s.3-.6.6-.6h.6c.2 0 .3-.1.3-.3 0-.2-.1-.3-.3-.3h-.6c-.6 0-1.2.5-1.2 1.2 0 .6.6 1.2 1.2 1.2zm0-14.1h.6c.2 0 .3-.1.3-.3 0-.2-.1-.3-.3-.3h-.6c-.3 0-.6-.3-.6-.6s.3-.6.6-.6h.6c.2 0 .3-.1.3-.3 0-.2-.1-.3-.3-.3h-.6c-.6 0-1.2.5-1.2 1.2 0 .6.6 1.2 1.2 1.2zm0 26.6h.6c.2 0 .3-.1.3-.3 0-.2-.1-.3-.3-.3h-.6c-.6 0-1.2.5-1.2 1.2 0 .6.5 1.2 1.2 1.2h.6c.2 0 .3-.1.3-.3 0-.2-.1-.3-.3-.3h-.6c-.3 0-.6-.3-.6-.6.1-.4.3-.6.6-.6zm-45.5-37.7c-.4 0-.8.3-.8.8v35.3c0 .4.3.8.8.8s.8-.3.8-.8v-35.3c0-.5-.4-.8-.8-.8zm64.8 24.6c.3 0 .6-.3.6-.6v-23.3c0-.3-.3-.6-.6-.6s-.6.3-.6.6v23.3c0 .3.3.6.6.6zm0 25c.3 0 .6-.3.6-.6v-8.6c0-.3-.3-.6-.6-.6s-.6.3-.6.6v8.6c0 .3.3.6.6.6zm0-12.5c.3 0 .6-.3.6-.6v-5c0-.3-.3-.6-.6-.6s-.6.3-.6.6v5c0 .3.3.6.6.6zm-64.8 1.4c-.4 0-.8.3-.8.8v6.5c0 .4.3.8.8.8s.8-.3.8-.8v-6.5c0-.4-.4-.8-.8-.8zM561.2 49.4c-.3-.3-.8-.3-1.1 0l-6.2 6.2c-.1.1-.2.3-.2.6 0 .2.1.4.2.6l1.5 1.5-1.4 1.4c-.3.3-.3.8 0 1.1l2.4 2.4c.2.2.4.2.6.2.2 0 .4-.1.6-.2l.7-.7 2.1 2.1c-1.9 2.5-1.7 6.1.6 8.4l15.6 15.6c1.2 1.2 2.9 1.9 4.6 1.9 1.7 0 3.4-.7 4.6-1.9l7-7c1.2-1.2 1.9-2.9 1.9-4.6 0-1.7-.7-3.4-1.9-4.6l-15.6-15.6c-2.2-2.2-5.6-2.5-8.1-.9l-2.1-2.1.7-.7c.3-.3.3-.8 0-1.1l-2.4-2.4c-.1-.1-.3-.2-.6-.2-.2 0-.4.1-.6.2l-1.4 1.4-1.5-1.6zm-5.6 6.8l5.1-5.1 1 1-5.1 5.1-1-1zm20.1 1.9l9.4 9.4c-1.4.6-5.4 2-10.1-.3-.4-.2-.9 0-1.1.4-.2.4 0 .9.4 1.1 2.2 1.1 4.3 1.4 6.1 1.4 3.1 0 5.3-1 5.9-1.4l5 5c.9.9 1.3 2 1.3 3.2 0 1.2-.5 2.4-1.3 3.2l-7 7c-.9.9-2 1.3-3.2 1.3-1.2 0-2.4-.5-3.2-1.3l-15.6-15.6c-.9-.9-1.3-2-1.3-3.2 1.3-.5 4.5-1.4 8.5-.9.4.1.8-.2.9-.7.1-.4-.2-.8-.7-.9-3.6-.5-6.6.1-8.4.6.2-.5.5-1 1-1.4l7-7c.9-.9 2-1.3 3.2-1.3 1.2.1 2.4.5 3.2 1.4zm-8.2-1l-2.2 2.2-3.7 3.7-2-2 5.9-5.9 2 2zm-2.8-5.9l1.3 1.3-.4.4c-.2 0-.4.1-.5.3-.2.2-.2.3-.3.5l-6.5 6.5c-.2 0-.4.1-.5.3-.2.2-.2.3-.3.5l-.4.4-1.3-1.3 8.9-8.9z"/><path d="M568.3 70.1c-1.4 0-2.5 1.1-2.5 2.5s1.1 2.5 2.5 2.5 2.5-1.1 2.5-2.5-1.1-2.5-2.5-2.5zm0 3.4c-.5 0-.9-.4-.9-.9s.4-.9.9-.9.9.4.9.9-.4.9-.9.9zm6.4 4.2c1.2 0 2.3-1 2.3-2.3 0-1.2-1-2.3-2.3-2.3-1.3 0-2.3 1-2.3 2.3 0 1.3 1 2.3 2.3 2.3zm0-3c.4 0 .7.3.7.7 0 .4-.3.7-.7.7-.4 0-.7-.3-.7-.7 0-.4.3-.7.7-.7zm-75.9-10.9h-.2c-.4.1-.7.5-.7.9v18.5c0 .4.2.7.6.8h.3c.3 0 .6-.1.7-.4l1.8-2.5c.1-.1.2-.3.2-.5V68.2c0-.1 0-.3-.1-.4l-1.8-3.6c-.2-.3-.5-.4-.8-.4zm1.8 16.9l-1.8 2.5V64.6l1.8 3.6v12.5zm-23.5 23.7c-6.6 0-11.9 5.3-11.9 11.9 0 6.6 5.3 11.9 11.9 11.9 6.6 0 11.9-5.3 11.9-11.9 0-6.6-5.3-11.9-11.9-11.9zm0 23c-6.1 0-11-4.9-11-11s4.9-11 11-11 11 4.9 11 11-4.9 11-11 11zm17.2-69.2c-.2-.2-.4-.4-.7-.4h-.3c-.4.1-.6.5-.6.8v29.2c0 .4.3.7.6.8h.3c.3 0 .6-.1.7-.4l2.4-3.6c.1-.1.2-.3.2-.5v-22c0-.2-.1-.3-.2-.5l-2.4-3.4zm1.6 26.1l-2.4 3.6V58.7l2.4 3.6v22zm-41.2-.6c.2.2.4.4.7.4h.3c.4-.1.6-.5.6-.8V64.6c0-.4-.3-.8-.7-.9h-.2c-.3 0-.6.2-.8.5l-1.8 3.6c-.1.1-.1.3-.1.4v12.4c0 .2.1.4.2.5l1.8 2.6zm-1-15.5l1.8-3.6v18.5l-1.8-2.5V68.2z"/><path d="M477.1 110.5c-3.2 0-5.8 2.6-5.8 5.8 0 3.2 2.6 5.8 5.8 5.8 3.2 0 5.8-2.6 5.8-5.8 0-3.2-2.6-5.8-5.8-5.8zm0 10.8c-2.7 0-4.9-2.2-4.9-4.9s2.2-4.9 4.9-4.9 4.9 2.2 4.9 4.9-2.2 4.9-4.9 4.9zm-17.2-32.9c.2.2.4.4.7.4h.3c.4-.1.6-.5.6-.8V58.7c0-.4-.3-.7-.6-.8h-.3c-.3 0-.6.1-.7.4l-2.4 3.6c-.1.1-.2.3-.2.5v22c0 .2.1.3.2.5l2.4 3.5zm-1.6-26.1l2.4-3.6v29.2l-2.4-3.6v-22z"/><path d="M474.7 49.3v2c-.7.1-1.3.2-2 .3v-1.9c0-.1-.1-.3-.2-.3-.1-.1-.2-.1-.4-.1-1.6.4-3 1.2-4.1 2.3-.1.1-.1.2-.1.3v1.3c-2.8 1.3-4.4 2.6-4.5 2.6-.2.1-.2.3-.2.5V109c-1.2 2.2-1.8 4.7-1.8 7.3 0 2.7.7 5.2 1.8 7.3v31.1l-4.8 5.5c-.5.5-.6 1.3-.3 1.9.3.6.9 1 1.6 1h13.7v7.9c0 .4.3.7.7.7h.3v15.9h-.3c-.7 0-1.3.6-1.3 1.3v6.8c0 .7.6 1.3 1.3 1.3h.3v7.7h-.7c-.7 0-1.3.6-1.3 1.3v10.5c0 .7.6 1.3 1.3 1.3h.3c.2 1.4 1.5 2.5 3 2.5s2.8-1.1 3-2.5h.3c.7 0 1.3-.6 1.3-1.3v-10.3c0-.7-.6-1.3-1.3-1.3h-.7v-7.7h.3c.7 0 1.3-.6 1.3-1.3V189c0-.7-.6-1.3-1.3-1.3h-.3v-15.9h.3c.4 0 .7-.3.7-.7v-7.9h13.7c.7 0 1.3-.4 1.6-1 .3-.6.2-1.4-.3-1.9l-4.8-5.5v-31.1c1.2-2.2 1.8-4.7 1.8-7.3 0-2.6-.6-5-1.7-7.1V56.4c0-.2-.1-.4-.3-.6-.1-.1-1.7-1.5-4.5-2.7V52c0-.1 0-.2-.1-.3-1.1-1.1-2.6-1.9-4.1-2.3-.1 0-.3 0-.4.1-.1.1-.2.2-.2.3v1.9c-.7-.1-1.3-.2-2-.3v-2c0-.2-.2-.4-.4-.4-1.5-.1-2.5-.1-4 0 0-.1-.2.1-.2.3zm-5.9 2.8c.8-.8 1.9-1.4 3-1.8v13.4h-3V52.1zm8.3 167.1c-.8 0-1.4-.5-1.6-1.2h3.3c-.3.7-.9 1.2-1.7 1.2zm3.4-13v10.5h-6.7v-10.5h6.7zm-4.7-1.3v-7.7h2.6v7.7h-2.6zM480 189v6.8h-5.9V189h5.9zm-4.9-18.6h-.3v-7.2h4.5v7.2h-4.2zm3.3 1.3v15.9h-2.6v-15.9h2.6zm16-10.3h-34.6l17.3-19.9 17.3 19.9zm-29.8-8.1v-27.5c1.5 2.1 3.6 3.7 5.9 4.8v15.8l-5.9 6.9zm7.2-8.4v-13.8c1.7.6 3.4.9 5.3.9s3.6-.3 5.3-.9v13.8l-3.9-4.5c-.3-.4-.8-.6-1.3-.6s-1 .2-1.3.6l-4.1 4.5zm11.9 1.5v-15.8c2.4-1.1 4.4-2.8 5.9-4.8v27.5l-5.9-6.9zm7.3-30.1c0 7.7-6.2 13.9-13.9 13.9s-13.9-6.2-13.9-13.9 6.2-13.9 13.9-13.9 13.9 6.2 13.9 13.9zm-18.2-33.6c0-2.4 2-4.4 4.4-4.4 2.4 0 4.4 2 4.4 4.4 0 2.4-2 4.4-4.4 4.4-2.5 0-4.4-1.9-4.4-4.4zm9.6-32.3c1.1.4 2.2 1 3 1.8v11.6h-3V50.4zm-6.8-.7c1.1-.1 1.9-.1 3 0v14h-3v-14zm-.4 14.9h3.9c.2 0 .4-.2.4-.4V52.7c.7.1 1.3.2 2 .3v11.2c0 .2.2.4.4.4h3.9c.2 0 .4-.2.4-.4v-9.4c1.6.8 2.8 1.6 3.3 2v50c-1.2-1.6-2.7-2.9-4.5-4V96l2.3-4.4c0-.1.1-.1.1-.2V78.6c0-.1-.1-.3-.2-.4l-1.5-2.6c.3-.5.6-1.2.6-1.9 0-2-1.6-3.5-3.5-3.5s-3.5 1.6-3.5 3.5c0 2 1.6 3.5 3.5 3.5.9 0 1.8-.4 2.4-1l1.4 2.5v12.5l-2.3 4.4c0 .1-.1.1-.1.2v6.4c-2-1-4.2-1.6-6.6-1.7V88.4c2.9-.2 5.3-2.7 5.3-5.7 0-3.1-2.6-5.7-5.7-5.7s-5.7 2.6-5.7 5.7c0 3 2.3 5.5 5.3 5.7v12.2c-2.2.1-4.2.5-6.1 1.4v-4.8l-2.1-6.8v-13l2.1-1.7c.7.8 1.8 1.3 2.9 1.3 2.2 0 3.9-1.8 3.9-3.9 0-2.2-1.8-3.9-3.9-3.9-2.1 0-3.9 1.8-3.9 3.9 0 .7.2 1.3.5 1.9l-2.3 1.9c-.1.1-.2.2-.2.3v13.4l2.1 6.8v5.1c-2 1.1-3.8 2.6-5.2 4.5V56.7c.5-.4 1.6-1.2 3.4-2v9.5c0 .2.2.4.4.4h3.9c.2 0 .4-.2.4-.4V53c.7-.1 1.3-.2 2-.3v11.5c0 .2.2.4.5.4zm9.7 9.2c0 1.2-1 2.2-2.2 2.2-1.2 0-2.2-1-2.2-2.2 0-1.2 1-2.2 2.2-2.2 1.2 0 2.2 1 2.2 2.2zm-14-.7c0-1.4 1.2-2.6 2.6-2.6 1.4 0 2.6 1.2 2.6 2.6 0 1.4-1.2 2.6-2.6 2.6-1.4 0-2.6-1.2-2.6-2.6zm105.7 171.3c-2 0-3.8-.2-5.2-.5-.5-.1-.9.3-1 .7-.1.5.2.9.7 1 1.5.2 3.4.5 5.5.5.5 0 .9-.4.9-.9s-.5-.8-.9-.8zm9.9-.8l-4.1.7c-.5.1-.8.5-.7 1 .1.4.4.7.8.7h.1l4.1-.7c.5-.1.8-.5.7-1 0-.5-.4-.8-.9-.7z"/><path d="M585.9 164.7h2.1c.1 0 .2 0 .2.1l.1.1 2.7 3c1 1.1 2.4 1.7 3.9 1.7h3.9c.4 0 .7-.2.8-.6.3-.8 6.8-20.4 0-37.5s-21-25.3-21.6-25.6c-.3-.1-.6-.1-.8 0-.6.3-14.8 8.6-21.6 25.6-6.8 17.1-.3 36.6 0 37.5.1.3.4.6.8.6h3.9c1.4 0 2.8-.6 3.9-1.7l2.7-3 .1-.1s.1-.1.2-.1h2.1c.2 0 .4.1.5.2.1.1.1.3 0 .5l-.7 1.7c-.1.3-.1.6.1.8.1.1.9 1.2 2.6 2.2l1.1 67.9-7.9.3c-.5 0-.8.4-.8.9v1.3c0 .1-.1.2-.1.3v7.5c0 .4.3.8.7.8l6.3 1c.8.1 1.6.2 2.5.3l.1 20c-.1 0-.1.1-.2.2l-10 12.3c-.8 1-1.1 2.3-.8 3.6.4 1.3 1.3 2.3 2.6 2.7 1.2.4 2.7.7 4.9 1.1h.1c1.2 1.5 3.6 2.6 6.4 2.7.1 0 .3 0 .4-.1h.5c.1.1.2.1.4.1 3-.1 5.4-1.2 6.6-2.7h.1c1.7-.2 3.3-.6 5-1.1 1.2-.4 2.2-1.4 2.5-2.6.4-1.2.1-2.6-.7-3.6l-10.2-12.4-.1-.1v-5.7s0-.1.1-.1c.1-.2 0-.4 0-.6v-5.9c.1-.2 0-.3 0-.5v-7.1c.9-.1 1.6-.2 2.4-.3l6.3-1c.4-.1.7-.4.7-.8v-9.1c0-.5-.4-.8-.8-.9l-7.8-.3 1.1-67.9c1.8-1 2.6-2.2 2.7-2.3.2-.2.2-.5.1-.8l-.7-1.7c-.1-.2 0-.4.1-.6.2 0 .3-.2.5-.2zm-13.1 75.2v1.5c-.5-.1-1-.1-1.5-.2l-5.5-.9v-.1l7-.3zm6.9 10.9v1.4c-.8 2.4-3.1 3.3-4.3 3.6v-5h4.3zm3.7 34.1c-1.2-.8-2.9-1.4-4.8-1.5h-1.1c-2.4 0-4.5.6-6 1.6-.6-.1-1-.3-1.4-.4h-.1c-.4-.1-.6-.4-.7-.7-.1-.4 0-.7.2-1l7.1-8.7c.5-.5 1.3-.5 1.7 0l7.1 8.7c.2.3.3.7.2 1-.1.4-.4.6-.8.7-.4.1-.9.2-1.4.3zm-2.5 3.3c0 1.8-1.5 3.2-3.4 3.2s-3.4-1.4-3.4-3.2c0-1.5 1-2.7 2.5-3.1h1.7c1.5.3 2.6 1.6 2.6 3.1zm-4.1-16.7l-1.4-.6v-1.2c1-.2 2.7-.8 4.2-2.1v3.3l-1.4.6c-.5.2-.9.2-1.4 0zm-1.4-13.9c1-.2 2.8-.8 4.3-2.2v2.5c-.9 2.3-3 3.2-4.3 3.5v-3.8zm4.2 6.9c-.9 2.2-3 3.1-4.2 3.4v-4.7c1-.2 2.8-.8 4.2-2.2v3.5zm-13.8 23.2c-.7-.2-1.3-.8-1.5-1.5-.2-.7 0-1.4.4-2l9.7-11.8 1 .4-.2.2-7.1 8.7c-.6.7-.8 1.7-.5 2.6.3.9 1 1.6 1.8 1.8.2.1.4.2.6.2-.4.6-.6 1.2-.6 1.9v.3c-1.5-.3-2.7-.5-3.6-.8zm5.4.5c0-.7.6-1.5 1.6-2.1-.3.6-.5 1.3-.5 2 0 .8.2 1.5.6 2.2-1-.5-1.7-1.3-1.7-2.1zm10.8 2.2c.4-.7.6-1.5.6-2.3 0-.7-.2-1.4-.5-2 1 .6 1.6 1.4 1.6 2.1.1.9-.6 1.6-1.7 2.2zm8.2-6.3c.5.6.6 1.3.4 2-.2.7-.7 1.3-1.4 1.5-1.3.4-2.5.7-3.7.9v-.4c0-.7-.2-1.3-.6-1.9.2-.1.4-.1.5-.2.9-.3 1.6-1 1.9-1.9.3-.9.1-1.9-.5-2.6l-7.1-8.7c0-.1-.1-.1-.2-.1l1-.4 9.7 11.8zm-1.1-36.4l-5.6.9c-1.5.2-3.1.4-5 .5h-1.3c-2.1 0-4.2-.2-5.9-.5l-5.6-.9v-1.9c0-.1.1-.2.1-.3V242l5.2.8c4.2.7 8.5.7 12.8 0l5.3-.9v5.8zm0-7.5l-5.6 1c-.5.1-.9.1-1.4.2V240l7 .2zm-5-76.2c-.4.6-.6 1.4-.3 2.2l.5 1.2c-.4.4-1.1 1-2.1 1.6-.1 0-.1 0-.2.1-1 .5-2.3.9-3.8 1-.5 0-.8.4-.8.9s.4.8.9.8c1.3-.1 2.3-.3 3.3-.7l-1.1 67.6c0 .1 0 .1-.1.2v2.6c-2 .2-3.9.2-5.9 0l-1.2-70.5c.8.3 1.8.5 2.9.6.5 0 .9-.3.9-.8s-.3-.9-.8-.9c-3.2-.3-5.1-1.9-5.7-2.6l.5-1.2c.3-.7.2-1.5-.2-2.2-.4-.6-1.1-1-1.9-1h-2c-.6 0-1.2.3-1.5.7l-2.7 2.9c-.8.8-1.7 1.2-2.6 1.2H557c-1-3.4-5.8-20.8.2-35.7 5.9-14.9 18-23 20.4-24.5 2.4 1.5 14.5 9.6 20.4 24.5 5.9 14.9 1.2 32.3.2 35.7H595c-1 0-2-.4-2.6-1.1l-2.7-3c-.4-.4-.9-.7-1.5-.7h-2.1c-.9.1-1.6.5-2 1.1z"/><path d="M578 126.2c-.3-.2-.7-.2-1 0-.2.1-4.7 3.4-6.9 9.9-2.2 6.6-.1 14 0 14.3.1.4.5.6.8.6h.2c.5-.1.7-.6.6-1.1 0-.1-2-7.3 0-13.3 1.6-4.8 4.6-7.7 5.8-8.7.6.5 1.8 1.7 3 3.3.3.4.8.5 1.2.2.4-.3.5-.8.2-1.2-1.9-2.5-3.8-3.9-3.9-4zm6.9 15.7c-.5 0-.8.4-.8.9.2 4.4-.8 8.3-.9 8.4-.1.5.1.9.6 1.1h.2c.4 0 .7-.3.8-.6 0-.2 1.1-4.2.9-8.9.1-.5-.3-.9-.8-.9zm-23.9-4.5c.1-.5-.1-.9-.6-1.1-.5-.1-.9.1-1.1.6-2.9 9.9.1 22.8.2 23.4.1.4.4.7.8.7h.2c.5-.1.8-.6.6-1 0-.2-2.9-13.2-.1-22.6zm33.7 23.5h.2c.4 0 .7-.3.8-.7.1-.5 3.1-13.5.2-23.4-.1-.5-.6-.7-1.1-.6-.5.1-.7.6-.6 1.1 2.8 9.4-.2 22.4-.2 22.5-.1.5.2 1 .7 1.1zm-22.5-7.3c-.5.1-.8.6-.7 1 .5 2.5.7 5.2.3 5.6-.4.3-.4.9-.1 1.2.2.2.4.3.6.3.2 0 .4-.1.6-.2 1.4-1.2.7-5.5.3-7.3 0-.4-.5-.7-1-.6zm69.8-138c.2 0 .3-.1.5-.2l3.8-3.8c.3-.3.3-.7 0-.9-.3-.3-.7-.3-.9 0l-3.8 3.8c-.3.3-.3.7 0 .9.1.1.2.2.4.2z"/><path d="M629 62.8l5.2.9 2.6 8.1c.1.3.4.6.8.6h1.6l.7 13.8.3 6.6.2 4.3h-.1c-.5 0-.8.4-.8.8v4.1c-.8 1-1.2 2.3-1.2 3.6 0 3.2 2.6 5.9 5.9 5.9 3.3 0 5.9-2.6 5.9-5.9 0-1.3-.5-2.5-1.2-3.6v-4c0-.5-.4-.8-.8-.8h-.1l1.2-24.8h1.6c.4 0 .7-.2.8-.6l2.6-8.1 5.1-.9c.4-.1.7-.4.7-.8v-8.1c0-.2-.1-.5-.3-.6-.2-.2-.4-.2-.7-.2l-2.6.4v-.2c0-9.4.5-25.7 1-43 .1-3.4.2-6.9.3-10.4H656l-.3 10.4c-.5 17.3-1 33.6-1 43 0 .2.1.3.2.5l-4.7.8c0-.9-.3-1.8-.7-2.6 0-.1.1-.2.1-.3V0H648v50.2c-1-.8-2.3-1.3-3.7-1.3-1.4 0-2.8.5-3.8 1.4V0h-1.6v51.9c0 .1 0 .2.1.3-.4.7-.6 1.6-.7 2.5l-4.8-.8c.1-.1.2-.3.2-.5 0-9.4-.5-25.7-1-43-.1-3.4-.2-6.9-.3-10.4h-1.6c.1 3.5.2 7 .3 10.4.5 17.3 1 33.6 1 43v.2l-2.6-.4c-.2 0-.5 0-.7.2-.2.2-.3.4-.3.6v8c-.1.4.1.7.5.8zm19.4 42.9c0 2.3-1.9 4.2-4.2 4.2-2.3 0-4.2-1.9-4.2-4.2 0-.9.3-1.8.8-2.5h6.8c.5.7.8 1.6.8 2.5zM641.8 92l-.2-5c1.2-.2 3.4-.7 5.3-2.7l-.2 4.4c-1.3 2.4-3.6 3.1-4.9 3.3zm4.7-.4l-.3 5.6h-4.1l-.2-3.6c1.1-.1 3-.6 4.6-2zm.5 7.2l.1 2.8h-6v-2.8h5.9zm0-17.7c-1.4 3.2-4.2 4-5.5 4.2l-.2-4.6c1.3-.2 4-.9 5.9-2.8l-.2 3.2zm-5.8-2.1l-.3-6.6h6.6l-.1 2.5c-1.3 2.8-4.6 3.8-6.2 4.1zm8.9-8.2h-11.9l-2.1-6.6h13.7c.1.1.3.2.5.2h.1l1-.2h.8l-2.1 6.6zm-6-20.2c2.4 0 4.4 2 4.4 4.4 0 2.4-2 4.4-4.4 4.4-2.4 0-4.4-2-4.4-4.4 0-2.5 2-4.4 4.4-4.4zM630 54.9l8.3 1.5c.6 2.7 3 4.6 5.9 4.6 2.9 0 5.2-2 5.9-4.7l8.2-1.4v6.4l-7 1.2H637l-7-1.2v-6.4z"/><path d="M642 11.8c.2 0 .3-.1.5-.2l3.8-3.8c.3-.3.3-.7 0-.9-.3-.3-.7-.3-.9 0l-3.8 3.8c-.3.3-.3.7 0 .9.1.2.2.2.4.2zm2.1 95.8c-1.1 0-1.9-.9-1.9-1.9 0-.4-.3-.7-.7-.7-.4 0-.7.3-.7.7 0 1.8 1.5 3.2 3.2 3.2.4 0 .7-.3.7-.7.1-.3-.2-.6-.6-.6zm0-50c1.5 0 2.7-1.2 2.7-2.7 0-1.5-1.2-2.7-2.7-2.7-1.5 0-2.7 1.2-2.7 2.7.1 1.5 1.3 2.7 2.7 2.7zm0-4c.8 0 1.4.6 1.4 1.4 0 .8-.6 1.4-1.4 1.4-.8 0-1.4-.6-1.4-1.4 0-.8.7-1.4 1.4-1.4zm4 13.2h-7.9c-.4 0-.7.3-.7.7 0 .4.3.7.7.7h7.9c.4 0 .7-.3.7-.7 0-.4-.3-.7-.7-.7zm-3.3 290.7c0-.4-.3-.7-.7-.7-.4 0-.7.3-.7.7v14.6c-.5.5-4.7 5.4-4.7 9.7V400h1.6v-18.2c0-2.9 2.6-6.5 3.8-8 1.2 1.5 3.8 5 3.8 8V400h1.6v-18.2c0-4.3-4.3-9.2-4.7-9.7v-14.6z"/><path d="M644.6 342.8c0-.1 0-.1 0 0-.1-.1-.2-.1-.2-.1h-.7c-.1 0-.1.1-.1.1s-.1 0-.1.1c-.5.4-11.8 10.5-14.7 24.4v.3c0 .1 1 7.9 1.2 15.6.1 5.5.3 11.2.4 16.9h1.6c-.2-5.7-.3-11.5-.5-17-.2-7.2-1.1-14.5-1.2-15.6 2.3-10.7 9.9-19.3 12.9-22.3v6.3c0 .4.3.7.7.7.4 0 .7-.3.7-.7v-6.3c3 3 10.6 11.5 12.9 22.3-.1 1.1-1 8.4-1.2 15.6-.1 5.5-.3 11.2-.5 17h1.6c.2-5.7.3-11.4.4-16.9.2-7.7 1.2-15.5 1.2-15.6v-.3c-2.6-14-13.9-24.1-14.4-24.5zM530 386.6h-40.2c-.5 0-.8.4-.8.8s.4.8.8.8H530c.5 0 .8-.4.8-.8s-.3-.8-.8-.8zm25.2 1.7h7.2c.5 0 .8-.4.8-.8s-.4-.8-.8-.8h-7.2c-.5 0-.8.4-.8.8s.4.8.8.8z"/><path d="M579.8 384.3H568v-3.9c0-.6-.5-1-1-1h-.5v-9.3c0-.5-.4-.8-.8-.8h-4.8c-.5 0-.8.4-.8.8v9.3h-56.7v-4.5c0-.5-.4-.8-.8-.8h-12.5c-.5 0-.8.4-.8.8v4.5h-3.8c-.6 0-1 .5-1 1v3.9H478c.1-.5.1-1.1.1-1.7 0-.2-.1-.5-.2-.6-.2-.2-.4-.3-.6-.3h-9c-.4 0-.8.4-.8.8 0 .1-.4 8.7-1.9 17.4h1.7c1.2-7.2 1.6-14.2 1.8-16.6h7.3c-.5 6.4-1.8 12-3.2 16.6h1.7c.5-1.7 1-3.5 1.4-5.5h7.7v2.2c0 .2.1.4.2.6v2.7h1.7v-2.2h43.2v2.2h1.7v-2.2h19.6v2.2h1.7v-2.2h7v2.2h1.7v-2.2h6.1c.6 0 1-.5 1-1v-2.2h11.9c.5 0 .8-.4.8-.8v-8.5c0-.5-.3-.9-.8-.9zm-95.7 8.6h-7.4c.4-2.2.8-4.4 1.1-6.9h6.3v6.9zm77.5-22h3.1v7.7h-3.1v-7.7zm-70.9 4.8h10.9v3.7h-10.9v-3.7zm44.4 12.6h6.4v7.4h-55.3v-14.2h55.3v5.1h-6.4c-.5 0-.8.4-.8.8s.4.9.8.9zm30.8 7.4h-22.7v-14.2h22.7v14.2zm13.1-2.8h-11V386h11v6.9zM496.1 13c1.7 0 3-1.3 3-3s-1.3-3-3-3-3 1.3-3 3c0 1.6 1.4 3 3 3zm0-4.4c.7 0 1.3.6 1.3 1.3 0 .7-.6 1.3-1.3 1.3-.7 0-1.3-.6-1.3-1.3 0-.7.6-1.3 1.3-1.3zm-32.8 4.8h5.9c.3 0 .6-.2.7-.4 0-.1 2.8-5 5.1-12.9h-1.7c-1.9 6.2-3.9 10.4-4.6 11.7h-4.1c1.2-3.4 2.1-7.6 2.8-11.7h-1.7c-.7 4.4-1.7 8.8-3.1 12.2-.1.3-.1.6.1.8.1.1.3.3.6.3z"/><path d="M485.2 4.5h5.8c-1.1 9.8-6.5 22.4-6.6 22.5-.1.3-.1.6.1.8.2.2.4.4.7.4h10.9c.3 0 .6-.2.8-.5.1-.3 1.8-4.4 3.4-9.2h9.6c.5 0 .8-.4.8-.8v-6.9h7.5c1.5 8.8 4.8 23.8 11.1 32.1.2.2.4.3.7.3h.2l10.9-3.3c.3-.1.5-.3.6-.5.1-.3 0-.5-.1-.8-.1-.1-10.3-14.4-10.7-34.9V0h-1.7v2.9H486V0h-1.7v3.7c.1.5.4.8.9.8zm38.4 0c.1 2.9.8 13 5.2 24.7.1.3.4.5.8.5.1 0 .2 0 .3-.1.4-.2.7-.6.5-1.1-4.2-11.5-4.9-21.3-5-24.2h4c.6 17.6 8.1 30.6 10.4 34.1l-4.1 1.2c-2.3-3.3-3.6-7.4-3.6-7.5-.1-.4-.6-.7-1-.6-.4.1-.7.6-.6 1 .1.2 1.3 4.1 3.5 7.5l-3.4 1c-8-10.2-11-31.8-11.6-36.5h4.6zm-19.6 0h13.3c.1.9.3 2.5.6 4.6h-14.8c.5-1.7.8-3.3.9-4.6zm1.6 10.9h.1c.4 0 .8-.3.8-.7.1-.5-.2-.9-.7-1-1.1-.2-1.6-1.8-1.8-3h5v6.1h-8.2c.6-1.8 1.2-3.6 1.7-5.3.4 1.5 1.1 3.6 3.1 3.9zm-3.3-10.9c-.4 5.8-5.7 19.2-6.8 22h-9.1c1.4-3.4 5.3-13.6 6.3-22h9.6zm45.9 15.6h14c.5 0 .8-.4.8-.8V3.7c0-.5-.4-.8-.8-.8h-1.5V0H559v2.9h-7V0h-1.7v2.9h-2.2c-.5 0-.8.4-.8.8v15.5c.1.5.5.9.9.9zm.9-15.6h12.3v3h-12.3v-3zm0 4.7h12.3v2.5h-12.3V9.2zm0 4.2h12.3v5h-12.3v-5zm136.2-8.5c2.8 0 5.2-2.1 5.5-4.9h-1c-.3 2.2-2.2 3.9-4.4 3.9S681.3 2.2 681 0h-1c.2 2.7 2.5 4.9 5.3 4.9zm0 389c-3 0-5.5 2.5-5.5 5.5v.6h1c0-.2-.1-.4-.1-.6 0-2.5 2-4.5 4.5-4.5s4.5 2 4.5 4.5c0 .2 0 .4-.1.6h1v-.6c.2-3.1-2.3-5.5-5.3-5.5zm59.2-5.3c0-.1 0-.1-.1-.2v-.1l-.1-.1s0-.1-.1-.1L732.5 377c-.1-.1-.2-.1-.2-.2h-.7c-.1 0-.2.1-.2.2l-11.7 11.1s0 .1-.1.1c0 0-.1 0-.1.1v.1c0 .1 0 .1-.1.2V400h1.8v-9.5l4.3 2.8v6.7h1.8v-6.8l4.7-4.7 4.7 4.7v6.8h1.8v-6.7l4.3-2.8v9.5h1.8v-11.2c-.1 0-.1-.1-.1-.2zm-13.4-1.7l-4.8 4.8-4.5-2.9 9.3-8.9v7zm6.6 4.8l-4.8-4.8v-7l9.3 8.9-4.5 2.9zM719.5 10.4c0 .1 0 .1.1.1v.1l.1.1s0 .1.1.1l11.7 10.1.1.1s.1 0 .1.1c.1 0 .2.1.3.1.1 0 .2 0 .3-.1.1 0 .1-.1.2-.1l11.6-10.1s0-.1.1-.1l.1-.1v-.1l.1-.1V0h-1.8v8.3l-4.3-3.2V0h-1.8v5.1l-4.6 4.6h-.2l-4.6-4.6V0h-1.8v5.1L721 8.3V0h-1.8v10.2c.3 0 .3.1.3.2zm13.4 1.1l4.8-4.8 4.6 3.4-9.4 8.1v-6.7zm-6.6-4.8l4.8 4.8v6.7l-9.4-8.1 4.6-3.4zM293.6 316.1s0-.1-.1-.1v-.1l-5.7-8.8-3.9-6c-.1-.1-.1-.2-.2-.2-.1-.1-.2-.1-.3-.1h-27.5c-.1 0-.2.1-.3.1-.1.1-.2.1-.2.2l-9.6 14.8v.1s0 .1-.1.1v.6c0 .1.1.1.1.2 0 0 0 .1.1.1l8.3 7.6v8.3c0 .2.1.5.3.7l5.2 4.9v6.4c0 .2.1.4.2.6l1.4 1.5c.9.9 1.9 1.7 3 2.2l1 21.4-3.3 29.5h1.8l3.3-29.3v-.1l-1-20.7c1.1.3 2.3.5 3.4.5s2.3-.2 3.3-.5l.6 22.4-4.7 27.7h1.8l4.7-27.5v-.2l-.7-23.1c1.2-.6 2.3-1.3 3.2-2.3l1.4-1.5c.2-.2.2-.4.2-.6v-6.5l5.3-4.8c.2-.2.3-.4.3-.7v-8.3l8.3-7.6s0-.1.1-.1c0-.1.1-.1.1-.2v-.4c.3-.1.2-.2.2-.2zm-12.2-13.7l-4.3 6.1h-14.9l-4.3-6.1h23.5zm-2.2 13.5l-9.5 8.8-9.5-8.8 2.2-5.7H277l2.2 5.7zm-23-12.8l4.6 6.4-2.3 5.8-10.3.1 8-12.3zm-1 19.9l-6.4-5.8 9.9-.1 10 9.2v9.2L256 323.8c-.1-.4-.4-.7-.8-.8zm22.6 21.5l-1.2 1.2c-.8.8-1.7 1.5-2.8 2-.2 0-.4.1-.6.2-1.1.4-2.3.7-3.6.7-2.7 0-5.3-1.1-7-2.9l-1.2-1.2v-.5c2 2.1 5 3.3 8.1 3.3 3.1 0 6.1-1.2 8.1-3.3v.5h.2zm0-2.1c-.4-.3-.9-.2-1.2.1-1.7 1.8-4.3 2.9-7 2.9s-5.3-1.1-7-2.9l-1.2-1.2v-.8l.6.5c.4.3.9.7 1.4 1 .1.1.2.1.3.2 1.8 1 4 1.7 5.9 1.5.1 0 .2 0 .3-.1.1.1.3.1.5.1 1.4-.1 2.8-.5 4.1-1.1.9-.4 1.7-1 2.5-1.6l.6-.5v1.9h.2zm5.5-9.9l-9.4 8.6c-1.1.5-2.2.8-3.5.9-.1 0-.2 0-.3.1-.2-.1-.4-.1-.6-.1-1.5.2-3.4-.4-4.9-1.3l-8.6-8.1v-6.2l13.1 12 .1.1.1.1c.1 0 .2.1.3.1.1 0 .2 0 .3-.1l.1-.1s.1 0 .1-.1l13.1-12 .1 6.1zm.9-9.5c-.4 0-.7.3-.8.7l-12.8 11.8v-9.2l10-9.2 9.9.1-6.3 5.8zm-3.3-7.7l-2.3-5.8 4.6-6.4 8 12.3-10.3-.1zm-12-268.1c.1.3.3.5.5.7.1 0 .2.1.3.1.2 0 .3 0 .5-.1l4.1-2.7c.3-.2.4-.5.4-.9l-4.9-39 .9-5.2h-1.8l-.9 5.1v.3l4.8 38.6-2.5 1.7L263 8.3l1-8.3h-1.8l-.9 8v.3l7.6 38.9zm147.8 339.2s0-.1 0 0c-.9-4.1-8.8-8.1-15.9-8.1-7 0-14.7 3.9-15.8 7.8 0 .1-.1.2-.1.3 0 .2-.8 5.1.4 10.2.3 1.1.9 2.2 1.6 3.4h1.9c-.9-1.3-1.7-2.6-2-3.8-.5-2.1-.7-4.2-.6-5.9.1.3.3.5.4.7.1.1.2.2.4.3 1.2 2.5 3 5.8 5 8.6h2c-2.3-3-4.2-6.5-5.6-9.3 5-5.3 10.3-5.7 11.8-5.6.2 0 .5-.1.6-.3.2.2.4.3.6.3 1.5 0 6.8.3 11.8 5.6-1.3 2.8-3.3 6.4-5.6 9.3h2c2-2.8 3.8-6.1 5-8.6.2-.1.3-.2.4-.3.1-.2.2-.4.4-.7 0 1.7-.1 3.7-.7 5.8-.3 1.1-1.1 2.5-2.1 3.8h2c.8-1.2 1.5-2.3 1.7-3.4 1.2-5 .4-9.9.4-10.1zm-1.9.7c-.7-.9-2-2.2-4.1-3.4-.3-.2-.7-.1-.9.2-.2.3-.1.7.2.9 2.4 1.4 3.7 2.9 4.2 3.6-.1.2-.2.4-.3.7-5.3-5.4-10.9-5.7-12.6-5.7-.2 0-.4.1-.6.3-.1-.2-.3-.3-.6-.3-1.7 0-7.2.3-12.5 5.7-.1-.2-.2-.5-.3-.7.8-1.1 3.9-4.7 10.9-6.1.3-.1.6-.4.5-.7-.1-.3-.4-.6-.7-.5-6.5 1.3-9.9 4.4-11.3 6-.1-.3-.2-.5-.3-.6.9-3 7.7-6.6 14.3-6.6 6.6 0 13.4 3.6 14.3 6.6 0 .1-.1.4-.2.6zM392.5 6.5l4.1 7.8-9 68.9c0 .3.1.5.2.7l12.3 11.4c.2.1.3.2.5.2s.4-.1.5-.2l12.3-11.4c.2-.2.3-.4.2-.7l-9-69.2c0-.1-.1-.3-.2-.4l3.8-7.1c.7-.6 4-3.5 6.1-6.5h-2c-1.5 1.9-3.3 3.6-4.4 4.6l-1-1.7C408 2 408.8 1 409.6 0h-2c-.7.9-1.4 1.7-2.1 2.4l-4.1-.4c-.4 0-.8.3-.9.7-.1.4.3.8.7.9l4.8.5 1 1.7-4.1 7.7-1.3.4c-.8.2-1.6.2-2.3 0l-1.3-.4-4.1-7.7 1-1.7.6-.1c.2 0 .4 0 .5-.1l3.7-.4c.4 0 .8-.4.7-.9-.1-.5-.4-.6-.8-.6l-3.6.4c-.7-.7-1.4-1.5-2.1-2.4h-2l2.1 2.7-.3.3-1 1.6c-1-1-2.7-2.7-4-4.6h-1.9c2.1 3 5.1 6 5.7 6.5zm5.6 8.7l.8.2c.5.1 1.1.2 1.6.2s1.1-.1 1.6-.2l1.3-.4 8.8 68-11.4 10.7L389.3 83l8.8-67.8z"/><path d="M393.6 74.9c.4 0 .7-.2.7-.6l.8-7.2c0-.3-.2-.7-.6-.7-.3 0-.7.2-.7.6l-.8 7.2c0 .4.2.7.6.7zm1.4-12.7c0 .1 0 .1 0 0 .4 0 .7-.2.7-.6l3.7-34.1c0-.3-.2-.7-.6-.7-.4 0-.7.2-.7.6l-3.7 34.1c0 .4.2.7.6.7zM151.9 397.7c-.3-.2-.7-.2-1 0-.1.1-1.1.8-2.4 2.3h2.4c.2-.2.4-.3.5-.5l.5.5h2.4c-1.3-1.5-2.4-2.2-2.4-2.3z"/><path d="M151.8 377.4c-.3-.1-.6-.1-.8 0-.6.3-13.1 7.6-20.3 22.6h1.9c6.3-12.5 16.6-19.5 18.8-20.8 2.2 1.4 12.5 8.3 18.8 20.8h1.9c-7.2-15-19.7-22.3-20.3-22.6zm2.6-374.5c.3.4.8.5 1.2.2.4-.3.5-.8.2-1.2-.5-.7-1-1.3-1.5-1.9h-2.4c.7.6 1.6 1.6 2.5 2.9zm14.2 29.5h.2c.4 0 .7-.3.8-.7.1-.5 3.1-13.5.2-23.4-.1-.5-.6-.7-1.1-.6-.5.1-.7.6-.6 1.1 2.8 9.4-.2 22.4-.2 22.5-.1.5.2 1 .7 1.1zm-12.1 85.1h.1l4.1-.7c.5-.1.8-.5.7-1-.1-.5-.5-.8-1-.7l-4.1.7c-.5.1-.8.5-.7 1 .1.4.5.7.9.7zM145.7 33c.2.2.4.3.6.3.2 0 .4-.1.6-.2 1.4-1.2.7-5.5.3-7.3-.1-.5-.6-.8-1-.7-.5.1-.8.6-.7 1 .5 2.5.7 5.2.3 5.6-.4.4-.5.9-.1 1.3zm12-9.3h.2c.4 0 .7-.3.8-.6 0-.2 1.1-4.2.9-8.9 0-.5-.4-.8-.9-.8s-.8.4-.8.9c.2 4.4-.8 8.3-.9 8.4 0 .4.3.9.7 1zm-12.9-1h.2c.5-.1.7-.6.6-1.1 0-.1-2-7.3 0-13.3 1.4-4.2 3.9-6.9 5.3-8.2h-2.4c-1.5 1.6-3.3 4.2-4.5 7.7-2.2 6.6-.1 14 0 14.3.1.3.4.6.8.6z"/><path d="M130.1 41h3.9c1.4 0 2.8-.6 3.9-1.7l2.7-3 .1-.1s.1-.1.2-.1h2.1c.2 0 .4.1.5.2.1.1.1.3 0 .5l-.7 1.7c-.1.3-.1.6.1.8.1.1.9 1.2 2.6 2.2l1.1 67.9-7.9.3c-.5 0-.8.4-.8.9v1.3c0 .1-.1.2-.1.3v7.5c0 .4.3.8.7.8l6.3 1c.8.1 1.6.2 2.5.3l.1 20c-.1 0-.1.1-.2.2l-10 12.3c-.8 1-1.1 2.3-.8 3.6.4 1.3 1.3 2.3 2.6 2.7 1.2.4 2.7.7 4.9 1.1h.1c1.2 1.5 3.6 2.6 6.4 2.7.1 0 .3 0 .4-.1h.5c.1.1.2.1.4.1 3-.1 5.4-1.2 6.6-2.7h.1c1.7-.2 3.3-.6 5-1.1 1.2-.4 2.2-1.4 2.5-2.6.4-1.2.1-2.6-.7-3.6L155 142l-.1-.1v-5.7s0-.1.1-.1c.1-.2 0-.4 0-.6v-5.9c.1-.2 0-.3 0-.5V122c.9-.1 1.6-.2 2.4-.3l6.3-1c.4-.1.7-.4.7-.8v-9.1c0-.5-.4-.8-.8-.9l-7.8-.3 1.1-67.9c1.8-1 2.6-2.2 2.7-2.3.2-.2.2-.5.1-.8l-.7-1.7c-.1-.2 0-.4.1-.6.1-.1.2-.2.4-.2h2.1c.1 0 .2 0 .2.1l.1.1 2.7 3c1 1.1 2.4 1.7 3.9 1.7h3.9c.4 0 .7-.2.8-.6.3-.8 6.8-20.4 0-37.5-.4-1-.9-2-1.3-3H170c.6 1.2 1.2 2.4 1.7 3.7 5.9 14.9 1.2 32.3.2 35.7h-3.2c-1 0-2-.4-2.6-1.1l-2.7-3c-.4-.4-.9-.7-1.5-.7h-2.1c-.7 0-1.4.3-1.8 1-.4.6-.6 1.4-.3 2.2l.5 1.2c-.4.4-1.1 1-2.1 1.6-.1 0-.1 0-.2.1-1 .5-2.3.9-3.8 1-.5 0-.8.4-.8.9s.4.8.9.8c1.3-.1 2.3-.3 3.3-.7l-1.1 67.6c0 .1 0 .1-.1.2v2.6c-2 .2-3.9.2-5.9 0l-1.2-70.5c.8.3 1.8.5 2.9.6.5 0 .9-.3.9-.8s-.3-.9-.8-.9c-3.2-.3-5.1-1.9-5.7-2.6l.5-1.2c.3-.7.2-1.5-.2-2.2-.4-.6-1.1-1-1.9-1h-2.1c-.6 0-1.2.3-1.5.7l-2.7 2.9c-.8.8-1.7 1.2-2.6 1.2h-3.2c-1-3.4-5.8-20.8.2-35.7.5-1.3 1.1-2.5 1.7-3.7h-1.9c-.5 1-.9 2-1.3 3-6.8 17.1-.3 36.6 0 37.5-.1.5.3.7.6.7zm13.3 119c-1.6-.3-2.8-.6-3.7-.9-.7-.2-1.3-.8-1.5-1.5-.2-.7 0-1.4.4-2l9.7-11.8 1 .4-.2.2-7.1 8.7c-.6.7-.8 1.7-.5 2.6.3.9 1 1.6 1.8 1.8.2.1.4.2.6.2-.4.6-.6 1.2-.6 1.9.1.2.1.3.1.4zm5.9-20.5v-4.7c1-.2 2.8-.8 4.2-2.2v3.5c-.9 2.2-3 3-4.2 3.4zm4.2-.4v3.3l-1.4.6c-.5.2-.9.2-1.4 0l-1.4-.6v-1.2c1-.2 2.8-.7 4.2-2.1zm-4.2-6.1v-3.9c1-.2 2.8-.8 4.3-2.2v2.5c-.9 2.3-3.1 3.2-4.3 3.6zm-.1-5.7v-5h4.4v1.4c-.9 2.4-3.1 3.3-4.4 3.6zm-4.1 32.4c0-.7.6-1.5 1.6-2.1-.3.6-.5 1.3-.5 2 0 .8.2 1.5.6 2.2-1-.5-1.7-1.3-1.7-2.1zm6.3 3.2c-1.9 0-3.4-1.4-3.4-3.2 0-1.5 1-2.7 2.5-3.1h1.7c1.5.3 2.6 1.6 2.6 3.1 0 1.7-1.5 3.2-3.4 3.2zm4.5-1c.4-.7.6-1.5.6-2.3 0-.7-.2-1.4-.5-2 1 .6 1.6 1.4 1.6 2.1.1.9-.6 1.6-1.7 2.2zm1.4-5.5c-1.2-.8-2.9-1.4-4.8-1.5h-1.1c-2.4 0-4.5.6-6 1.6-.6-.1-1-.3-1.4-.4h-.1c-.4-.1-.6-.4-.7-.7-.1-.4 0-.7.2-1l7.1-8.7c.5-.5 1.3-.5 1.7 0l7.1 8.7c.2.3.3.7.2 1-.1.4-.4.6-.8.7-.4.1-.9.2-1.4.3zm6.8-.8c.5.6.6 1.3.4 2-.2.7-.7 1.3-1.4 1.5-1.3.4-2.5.7-3.7.9v-.4c0-.7-.2-1.3-.6-1.9.2-.1.4-.1.5-.2.9-.3 1.6-1 1.9-1.9.3-.9.1-1.9-.5-2.6l-7.1-8.7c0-.1-.1-.1-.2-.1l1-.4 9.7 11.8zm-8-44.2l6.9.3v.1l-5.6.9c-.5.1-.9.1-1.4.2l.1-1.5zm1.6 2.9l5.3-.9v5.8l-5.6.9c-1.5.2-3.1.4-5 .5h-1.3c-2.1 0-4.2-.2-5.9-.5l-5.6-.9v-1.9c0-.1.1-.2.1-.3v-3.5l5.2.8c4.3.7 8.6.7 12.8 0zm-11-1.4c-.5-.1-1-.1-1.5-.2l-5.5-.9v-.1l7-.3v1.5z"/><path d="M144.2 116.1c-.1.5.2.9.7 1 1.5.2 3.4.5 5.5.5.5 0 .9-.4.9-.9s-.4-.9-.9-.9c-2 0-3.8-.2-5.2-.5-.5.1-.9.4-1 .8zm-10.8-84.3c.1.4.4.7.8.7h.2c.5-.1.8-.6.6-1 0-.1-3-13.1-.2-22.5.1-.5-.1-.9-.6-1.1-.5-.1-.9.1-1.1.6-2.8 9.8.2 22.7.3 23.3z"/></g></svg>