
<svg width="138" height="31" viewBox="0 0 138 31" xmlns="http://www.w3.org/2000/svg" xmlns:xlink="http://www.w3.org/1999/xlink"><title>Group 5 Copy</title><defs><path id="a" d="M0 .014h136.773v16.648H0z"/><path id="c" d="M0 .014h136.773v16.648H0z"/><path id="e" d="M0 .014h136.773v16.648H0"/></defs><g fill="none" fill-rule="evenodd"><path d="M42.277 7.594c-.45.397-1.297.595-2.539.595h-2.655v-4.74h2.725c1.164 0 1.98.16 2.445.48.467.321.7.913.7 1.775 0 .863-.226 1.493-.676 1.89m4.379-1.9c0-1.863-.54-3.215-1.619-4.054C43.957.8 42.153.38 39.622.38h-6.173v16.007h3.634V11.28h2.515l3.61 5.107h4.473l-4.123-5.724c2.065-.749 3.098-2.405 3.098-4.97M8.712 3.426c1.708 0 3.136.702 4.285 2.106l2.26-2.518c-1.802-2-4.038-3-6.708-3-2.392 0-4.415.794-6.068 2.381C.827 3.984 0 5.964 0 8.338c0 2.374.811 4.34 2.434 5.897 1.623 1.557 3.688 2.335 6.196 2.335 2.508 0 4.686-1.022 6.534-3.068l-2.33-2.36c-1.133 1.39-2.593 2.085-4.379 2.085-1.304 0-2.415-.45-3.33-1.351-.917-.9-1.375-2.096-1.375-3.584s.485-2.672 1.456-3.55c.97-.877 2.14-1.316 3.506-1.316m18.261 3.641h-6.475V.38h-3.634v16.007h3.634V10.09h6.475v6.297h3.634V.38h-3.634z" fill="#FEFEFE" fill-rule="nonzero"/><mask id="b" fill="#fff"><use xlink:href="#a"/></mask><path d="M116.81 12.724c-.838.473-1.886.71-3.144.71-1.258 0-2.341-.455-3.249-1.363-.909-.909-1.363-2.119-1.363-3.63 0-1.511.473-2.729 1.421-3.652.947-.924 2.112-1.386 3.494-1.386.714 0 1.378.119 1.991.355.614.237 1.285.668 2.015 1.294l1.887-2.68c-1.724-1.51-3.754-2.267-6.09-2.267-2.339 0-4.333.794-5.987 2.382-.974.935-1.653 2.01-2.054 3.217.036.032.073.062.108.096.715.703 1.072 1.564 1.072 2.584s-.357 1.88-1.072 2.583c-.044.044-.09.082-.136.122a7.65 7.65 0 0 0 2.035 3.238c1.622 1.557 3.63 2.335 6.021 2.335 2.858 0 5.094-.885 6.709-2.656v-5.68h-3.657v4.398z" fill="#FEFEFE" fill-rule="nonzero" mask="url(#b)"/><mask id="d" fill="#fff"><use xlink:href="#c"/></mask><path d="M133.116 8.327v4.397c-.838.473-1.887.71-3.144.71-1.258 0-2.342-.455-3.25-1.363-.908-.909-1.362-2.119-1.362-3.63 0-1.511.473-2.729 1.42-3.652.948-.924 2.112-1.386 3.494-1.386.714 0 1.378.119 1.992.355.613.237 1.285.668 2.015 1.294l1.887-2.68c-1.724-1.51-3.755-2.267-6.091-2.267-2.338 0-4.333.794-5.987 2.382s-2.48 3.569-2.48 5.943c0 2.374.81 4.339 2.433 5.897 1.623 1.557 3.63 2.335 6.022 2.335 2.857 0 5.093-.885 6.708-2.656v-5.68h-3.657z" fill="#FEFEFE" fill-rule="nonzero" mask="url(#d)"/><path fill="#FEFEFE" fill-rule="nonzero" d="M78.521 10.685L70.531.38h-3.4v16.007h3.633V6.357l7.757 10.03h3.634V.38H78.52z"/><mask id="f" fill="#fff"><use xlink:href="#e"/></mask><path d="M96.06 11.933c-.93 1-2.076 1.5-3.435 1.5-1.36 0-2.504-.5-3.436-1.5-.932-1-1.397-2.213-1.397-3.641 0-1.427.465-2.645 1.397-3.652.932-1.008 2.077-1.512 3.436-1.512s2.504.504 3.436 1.512c.932 1.007 1.397 2.225 1.397 3.652 0 1.428-.465 2.641-1.397 3.641m4.522-.966c-.714-.703-1.071-1.564-1.071-2.583 0-1.02.357-1.88 1.071-2.584.057-.056.117-.106.176-.157-.395-1.224-1.08-2.312-2.066-3.259-1.647-1.58-3.673-2.37-6.08-2.37s-4.433.79-6.08 2.37c-1.645 1.58-2.468 3.546-2.468 5.896 0 2.352.823 4.317 2.469 5.897s3.672 2.37 6.08 2.37c2.406 0 4.432-.79 6.079-2.37a7.805 7.805 0 0 0 2.01-3.102c-.04-.036-.081-.07-.12-.108" fill="#FEFEFE" fill-rule="nonzero" mask="url(#f)"/><path d="M101.644 9.924a2.078 2.078 0 0 1-.638-1.54c0-.608.212-1.121.638-1.54a2.151 2.151 0 0 1 1.567-.63c.619 0 1.141.21 1.567.63.426.419.64.932.64 1.54s-.214 1.12-.64 1.54c-.426.42-.948.629-1.567.629-.618 0-1.14-.21-1.567-.629M61.486 8.905c-.036.362-.105.71-.207 1.042l3.474 1.184c.206-.579.342-1.19.411-1.832l-3.678-.394zm.016-1.038l3.684-.397a8.186 8.186 0 0 0-.37-1.846l-3.488 1.18c.091.34.149.694.174 1.063m-.594-2.124l3.056-1.9a8.284 8.284 0 0 0-1.212-1.459l-.007-.006-2.466 2.442c.247.291.456.599.63.923" fill="#59C4C5" fill-rule="nonzero"/><path d="M58.384 13.13c-.366.14-.753.232-1.16.275a5.193 5.193 0 0 1-1.146-.008A4.378 4.378 0 0 1 54 12.599a5.056 5.056 0 0 1-.753-.666l-.103-.116a4.941 4.941 0 0 1-1.048-1.844 5.349 5.349 0 0 1-.213-1.042 6.14 6.14 0 0 1-.016-1.103 5.5 5.5 0 0 1 .179-1.052c.095-.346.226-.676.39-.991a5.199 5.199 0 0 1 .811-1.145c.212-.23.435-.43.67-.608a4.4 4.4 0 0 1 2.142-.865 5.105 5.105 0 0 1 1.192-.007 4.402 4.402 0 0 1 2.215.885l1.806-2.803A8.08 8.08 0 0 0 59.54.445a8.879 8.879 0 0 0-1.947-.39 10.36 10.36 0 0 0-1.9.006 8.885 8.885 0 0 0-1.82.363 8.079 8.079 0 0 0-1.742.78 8.595 8.595 0 0 0-1.539 1.18l-.035.035a8.246 8.246 0 0 0-1.208 1.47 7.51 7.51 0 0 0-.799 1.667 8.145 8.145 0 0 0-.386 1.848 9.49 9.49 0 0 0 .023 1.953c.074.64.214 1.248.423 1.825.21.575.488 1.119.832 1.632.324.482.706.937 1.15 1.363l.07.064a8.547 8.547 0 0 0 1.557 1.17c.539.313 1.11.56 1.712.744.566.173 1.16.29 1.782.348a10.294 10.294 0 0 0 1.854.007 8.908 8.908 0 0 0 1.899-.37c.6-.189 1.169-.44 1.706-.759l-1.792-2.79a4.384 4.384 0 0 1-.996.54" fill="#FEFEFE" fill-rule="nonzero"/><path d="M60.183 11.862l2.451 2.423c.04-.036.079-.07.118-.108.426-.41.796-.845 1.112-1.306l-3.034-1.893c-.18.31-.396.606-.647.884" fill="#59C4C5" fill-rule="nonzero"/><path d="M7.098 31l-.683-1.628H2.654L1.972 31H.442l3.377-7.7h1.53L8.68 31H7.098zm-3.916-2.893h2.706l-1.343-3.234-1.363 3.234zM17.68 23.3h1.43V31h-1.398l-3.96-5.302V31h-1.44v-7.7h1.397l3.97 5.313V23.3zm3.322 0h5.643v1.287h-4.17v1.903h3.74v1.287h-3.74v1.936h4.301V31h-5.774v-7.7zm16.61 0h1.529L36.533 31h-1.529l-1.76-5.841L31.452 31h-1.506l-2.596-7.7h1.584l1.814 6.105 1.804-6.105h1.453l1.815 6.127 1.79-6.127zm10.46.49a3.595 3.595 0 0 1 1.43 1.369c.345.587.517 1.25.517 1.991 0 .74-.174 1.402-.522 1.986a3.665 3.665 0 0 1-1.447 1.369c-.616.33-1.316.495-2.1.495h-3.147v-7.7h3.202c.77 0 1.459.163 2.067.49zm-.764 5.588c.378-.217.673-.517.886-.902.212-.386.319-.824.319-1.315s-.11-.933-.33-1.326a2.336 2.336 0 0 0-.908-.913 2.592 2.592 0 0 0-1.292-.324h-1.705v5.104h1.76c.469 0 .892-.108 1.27-.325zm3.998-6.078h5.644v1.287h-4.17v1.903h3.74v1.287h-3.74v1.936h4.301V31h-5.775v-7.7zm12.97 7.7l-.682-1.628H59.83L59.15 31h-1.53l3.378-7.7h1.529l3.332 7.7h-1.584zm-3.916-2.893h2.706l-1.343-3.234-1.364 3.234zm6.434-4.807h1.475v6.369h3.322V31h-4.796v-7.7zm8.647 0h5.642v1.287h-4.168v1.903h3.74v1.287h-3.74v1.936h4.3V31H75.44v-7.7zm6.346 0h1.584l2.267 6.061 2.287-6.061h1.519l-3.08 7.7h-1.53l-3.047-7.7zm8.635 0h5.644v1.287h-4.17v1.903h3.74v1.287h-3.74v1.936h4.302V31h-5.775v-7.7zm12.09 7.7l-1.332-2.277c-.058.007-.15.011-.275.011h-1.737V31h-1.475v-7.7h3.213c.997 0 1.767.231 2.31.693.542.462.814 1.115.814 1.958 0 .601-.13 1.115-.391 1.54-.26.425-.64.744-1.138.957L104.195 31h-1.683zm-3.344-3.564h1.737c.558 0 .983-.121 1.276-.363.294-.242.44-.601.44-1.078 0-.47-.146-.821-.44-1.056-.293-.235-.718-.352-1.275-.352h-1.739v2.849zM111.75 23.3l-2.805 5.181V31h-1.474v-2.464l-2.87-5.236h1.495l2.102 3.619 2.067-3.619h1.485zm8.91.49a3.595 3.595 0 0 1 1.43 1.369c.345.587.518 1.25.518 1.991 0 .74-.175 1.402-.523 1.986a3.665 3.665 0 0 1-1.447 1.369c-.616.33-1.316.495-2.1.495h-3.147v-7.7h3.202c.77 0 1.459.163 2.068.49zm-.764 5.588c.378-.217.673-.517.885-.902.213-.386.32-.824.32-1.315s-.11-.933-.33-1.326a2.336 2.336 0 0 0-.908-.913 2.592 2.592 0 0 0-1.293-.324h-1.704v5.104h1.76c.469 0 .892-.108 1.27-.325zM129.395 31l-.681-1.628h-3.763L124.27 31h-1.53l3.378-7.7h1.529l3.332 7.7h-1.584zm-3.916-2.893h2.706l-1.341-3.234-1.364 3.234zm12.068-4.807l-2.805 5.181V31h-1.474v-2.464l-2.871-5.236h1.496l2.1 3.619 2.069-3.619h1.484z" fill="#FC0"/></g></svg>